<mxfile host="65bd71144e">
    <diagram id="X-f-r7Gw72x54S9331QJ" name="Page-1">
        <mxGraphModel dx="2273" dy="787" grid="1" gridSize="10" guides="1" tooltips="1" connect="1" arrows="1" fold="1" page="0" pageScale="1" pageWidth="850" pageHeight="1100" math="0" shadow="0">
            <root>
                <mxCell id="0"/>
                <mxCell id="1" parent="0"/>
                <mxCell id="33" value="" style="ellipse;shape=cloud;whiteSpace=wrap;html=1;fontSize=25;fillColor=#0050ef;fontColor=#ffffff;strokeColor=#001DBC;" parent="1" vertex="1">
                    <mxGeometry x="-760" y="630" width="200" height="60" as="geometry"/>
                </mxCell>
                <mxCell id="3" value="Courses" style="whiteSpace=wrap;html=1;aspect=fixed;fillColor=#a20025;fontColor=#ffffff;strokeColor=#6F0000;" parent="1" vertex="1">
                    <mxGeometry x="330" y="430" width="80" height="80" as="geometry"/>
                </mxCell>
                <mxCell id="4" value="Students&lt;br&gt;" style="whiteSpace=wrap;html=1;aspect=fixed;fillColor=#a20025;fontColor=#ffffff;strokeColor=#6F0000;" parent="1" vertex="1">
                    <mxGeometry x="440" y="220" width="80" height="80" as="geometry"/>
                </mxCell>
                <mxCell id="5" value="Instractors" style="whiteSpace=wrap;html=1;aspect=fixed;fillColor=#a20025;fontColor=#ffffff;strokeColor=#6F0000;" parent="1" vertex="1">
                    <mxGeometry x="320" y="220" width="80" height="80" as="geometry"/>
                </mxCell>
                <mxCell id="6" value="Topics" style="whiteSpace=wrap;html=1;aspect=fixed;fillColor=#a20025;fontColor=#ffffff;strokeColor=#6F0000;" parent="1" vertex="1">
                    <mxGeometry x="430" y="430" width="80" height="80" as="geometry"/>
                </mxCell>
                <mxCell id="7" value="Questions" style="whiteSpace=wrap;html=1;aspect=fixed;fillColor=#a20025;fontColor=#ffffff;strokeColor=#6F0000;" parent="1" vertex="1">
                    <mxGeometry x="330" y="540" width="80" height="80" as="geometry"/>
                </mxCell>
                <mxCell id="8" value="Exams" style="whiteSpace=wrap;html=1;aspect=fixed;fillColor=#e51400;fontColor=#ffffff;strokeColor=#B20000;" parent="1" vertex="1">
                    <mxGeometry x="440" y="540" width="80" height="80" as="geometry"/>
                </mxCell>
                <mxCell id="9" value="Branches" style="whiteSpace=wrap;html=1;aspect=fixed;fillColor=#a20025;fontColor=#ffffff;strokeColor=#6F0000;" parent="1" vertex="1">
                    <mxGeometry x="320" y="90" width="80" height="80" as="geometry"/>
                </mxCell>
                <mxCell id="10" value="Trackes" style="whiteSpace=wrap;html=1;aspect=fixed;fillColor=#a20025;fontColor=#ffffff;strokeColor=#6F0000;" parent="1" vertex="1">
                    <mxGeometry x="440" y="90" width="80" height="80" as="geometry"/>
                </mxCell>
                <mxCell id="11" value="Question_Type" style="ellipse;whiteSpace=wrap;html=1;" parent="1" vertex="1">
                    <mxGeometry x="-710" y="180" width="120" height="80" as="geometry"/>
                </mxCell>
                <mxCell id="12" value="Question_Body" style="ellipse;whiteSpace=wrap;html=1;" parent="1" vertex="1">
                    <mxGeometry x="-880" y="180" width="120" height="80" as="geometry"/>
                </mxCell>
                <mxCell id="13" value="Question_ID" style="ellipse;whiteSpace=wrap;html=1;" parent="1" vertex="1">
                    <mxGeometry x="-1040" y="190" width="120" height="80" as="geometry"/>
                </mxCell>
                <mxCell id="14" value="Question_Answer" style="ellipse;whiteSpace=wrap;html=1;fillColor=#008a00;fontColor=#ffffff;strokeColor=#005700;" parent="1" vertex="1">
                    <mxGeometry x="-550" y="190" width="120" height="80" as="geometry"/>
                </mxCell>
                <mxCell id="15" value="Topic_ID" style="ellipse;whiteSpace=wrap;html=1;" parent="1" vertex="1">
                    <mxGeometry x="-360" y="210" width="120" height="80" as="geometry"/>
                </mxCell>
                <mxCell id="16" value="" style="endArrow=none;html=1;" parent="1" edge="1">
                    <mxGeometry width="50" height="50" relative="1" as="geometry">
                        <mxPoint x="-1025" y="240" as="sourcePoint"/>
                        <mxPoint x="-935" y="240" as="targetPoint"/>
                    </mxGeometry>
                </mxCell>
                <mxCell id="17" value="" style="endArrow=none;dashed=1;html=1;dashPattern=1 3;strokeWidth=2;" parent="1" edge="1">
                    <mxGeometry width="50" height="50" relative="1" as="geometry">
                        <mxPoint x="-345" y="269" as="sourcePoint"/>
                        <mxPoint x="-255" y="269" as="targetPoint"/>
                    </mxGeometry>
                </mxCell>
                <mxCell id="18" value="1-True false&lt;br&gt;2-Multi choice" style="rounded=1;whiteSpace=wrap;html=1;" parent="1" vertex="1">
                    <mxGeometry x="-510" y="90" width="200" height="60" as="geometry"/>
                </mxCell>
                <mxCell id="19" value="Multi_Choices_Questions_Answers" style="whiteSpace=wrap;html=1;aspect=fixed;" parent="1" vertex="1">
                    <mxGeometry x="-400" y="460" width="220" height="220" as="geometry"/>
                </mxCell>
                <mxCell id="20" value="Question_ID" style="ellipse;whiteSpace=wrap;html=1;" parent="1" vertex="1">
                    <mxGeometry x="-425" y="330" width="120" height="80" as="geometry"/>
                </mxCell>
                <mxCell id="21" value="Number_Of_Choice" style="ellipse;whiteSpace=wrap;html=1;" parent="1" vertex="1">
                    <mxGeometry x="-290" y="340" width="120" height="80" as="geometry"/>
                </mxCell>
                <mxCell id="22" value="Body_Of_Choice" style="ellipse;whiteSpace=wrap;html=1;" parent="1" vertex="1">
                    <mxGeometry x="-160" y="370" width="120" height="80" as="geometry"/>
                </mxCell>
                <mxCell id="25" value="" style="endArrow=none;html=1;entryX=0.5;entryY=1;entryDx=0;entryDy=0;exitX=0.136;exitY=0;exitDx=0;exitDy=0;exitPerimeter=0;" parent="1" source="19" target="20" edge="1">
                    <mxGeometry width="50" height="50" relative="1" as="geometry">
                        <mxPoint x="-330" y="430" as="sourcePoint"/>
                        <mxPoint x="-280" y="380" as="targetPoint"/>
                    </mxGeometry>
                </mxCell>
                <mxCell id="26" value="" style="endArrow=none;dashed=1;html=1;dashPattern=1 3;strokeWidth=2;" parent="1" edge="1">
                    <mxGeometry width="50" height="50" relative="1" as="geometry">
                        <mxPoint x="-390" y="390" as="sourcePoint"/>
                        <mxPoint x="-340" y="390" as="targetPoint"/>
                    </mxGeometry>
                </mxCell>
                <mxCell id="28" value="" style="endArrow=none;html=1;exitX=0.5;exitY=0;exitDx=0;exitDy=0;" parent="1" source="19" edge="1">
                    <mxGeometry width="50" height="50" relative="1" as="geometry">
                        <mxPoint x="-330" y="430" as="sourcePoint"/>
                        <mxPoint x="-280" y="380" as="targetPoint"/>
                    </mxGeometry>
                </mxCell>
                <mxCell id="29" value="" style="endArrow=none;html=1;" parent="1" edge="1">
                    <mxGeometry width="50" height="50" relative="1" as="geometry">
                        <mxPoint x="-390" y="379.5" as="sourcePoint"/>
                        <mxPoint x="-340" y="379.5" as="targetPoint"/>
                    </mxGeometry>
                </mxCell>
                <mxCell id="30" value="" style="endArrow=none;html=1;exitX=0.05;exitY=0.725;exitDx=0;exitDy=0;exitPerimeter=0;" parent="1" source="21" edge="1">
                    <mxGeometry width="50" height="50" relative="1" as="geometry">
                        <mxPoint x="-245" y="400" as="sourcePoint"/>
                        <mxPoint x="-195" y="400" as="targetPoint"/>
                    </mxGeometry>
                </mxCell>
                <mxCell id="31" value="" style="endArrow=none;html=1;entryX=0.242;entryY=1;entryDx=0;entryDy=0;entryPerimeter=0;" parent="1" source="19" target="22" edge="1">
                    <mxGeometry width="50" height="50" relative="1" as="geometry">
                        <mxPoint x="-180" y="490" as="sourcePoint"/>
                        <mxPoint x="-130" y="440" as="targetPoint"/>
                    </mxGeometry>
                </mxCell>
                <mxCell id="32" value="&lt;font style=&quot;font-size: 25px;&quot;&gt;1000)------&quot;1&quot;====&amp;gt;&amp;gt;&quot;msdflsdfk&quot;&lt;br&gt;1000)------&quot;2&quot;====&amp;gt;&amp;gt;&quot;msdflsdfk&quot;&lt;br&gt;1000)------&quot;3&quot;====&amp;gt;&amp;gt;&quot;msdflsdfk&quot;&lt;br&gt;1000)------&quot;4&quot;====&amp;gt;&amp;gt;&quot;msdflsdfk&quot;&lt;br&gt;&lt;br&gt;&lt;br&gt;1001)------&quot;1&quot;====&amp;gt;&amp;gt;&quot;cjsvmcv&quot;&lt;br&gt;1001)------&quot;2&quot;====&amp;gt;&amp;gt;&quot;sdfsdc&quot;&lt;br&gt;1001)------&quot;3&quot;====&amp;gt;&amp;gt;&quot;sfdfsdfsdf&quot;&lt;br&gt;1001)------&quot;4&quot;====&amp;gt;&amp;gt;&quot;sdfsdfd&quot;&lt;br&gt;&lt;/font&gt;" style="text;html=1;strokeColor=none;fillColor=none;align=center;verticalAlign=middle;whiteSpace=wrap;rounded=0;" parent="1" vertex="1">
                    <mxGeometry x="-790" y="680" width="490" height="240" as="geometry"/>
                </mxCell>
                <mxCell id="34" value="Multi_Choices_Questions_Answers" style="whiteSpace=wrap;html=1;aspect=fixed;fontStyle=1;fillColor=#e51400;fontColor=#ffffff;strokeColor=#B20000;" parent="1" vertex="1">
                    <mxGeometry x="330" y="650" width="190" height="190" as="geometry"/>
                </mxCell>
                <mxCell id="s9AA01UJdB5UPdM11suk-34" value="Question" style="whiteSpace=wrap;html=1;aspect=fixed;" parent="1" vertex="1">
                    <mxGeometry x="-785" y="370" width="220" height="220" as="geometry"/>
                </mxCell>
            </root>
        </mxGraphModel>
    </diagram>
    <diagram id="-33Cei1-MyxtZkBtJxa4" name="Page-2">
        <mxGraphModel dx="2751" dy="1831" grid="1" gridSize="10" guides="1" tooltips="1" connect="1" arrows="1" fold="1" page="0" pageScale="1" pageWidth="850" pageHeight="1100" math="0" shadow="0">
            <root>
                <mxCell id="0"/>
                <mxCell id="1" parent="0"/>
                <mxCell id="Fu7TBKyz4eI9DtGKC1yF-7" value="" style="whiteSpace=wrap;html=1;aspect=fixed;" parent="1" vertex="1">
                    <mxGeometry x="30" y="1350" width="140" height="140" as="geometry"/>
                </mxCell>
                <mxCell id="C3XXznOGY3TBKGL7pKct-18" value="" style="whiteSpace=wrap;html=1;aspect=fixed;" parent="1" vertex="1">
                    <mxGeometry x="62.5" y="622.5" width="95" height="95" as="geometry"/>
                </mxCell>
                <mxCell id="x1ZUqVB6L2o65wd4H-tt-1" value="Branches" style="whiteSpace=wrap;html=1;aspect=fixed;" parent="1" vertex="1">
                    <mxGeometry x="-90" y="50" width="80" height="80" as="geometry"/>
                </mxCell>
                <mxCell id="x1ZUqVB6L2o65wd4H-tt-2" value="Trackes" style="whiteSpace=wrap;html=1;aspect=fixed;" parent="1" vertex="1">
                    <mxGeometry x="580" y="110" width="80" height="80" as="geometry"/>
                </mxCell>
                <mxCell id="x1ZUqVB6L2o65wd4H-tt-3" value="has" style="rhombus;whiteSpace=wrap;html=1;fontSize=25;" parent="1" vertex="1">
                    <mxGeometry x="370" y="110" width="70" height="80" as="geometry"/>
                </mxCell>
                <mxCell id="x1ZUqVB6L2o65wd4H-tt-4" value="" style="endArrow=none;html=1;fontSize=25;entryX=0;entryY=0.5;entryDx=0;entryDy=0;exitX=1;exitY=0.5;exitDx=0;exitDy=0;" parent="1" source="x1ZUqVB6L2o65wd4H-tt-1" target="x1ZUqVB6L2o65wd4H-tt-3" edge="1">
                    <mxGeometry width="50" height="50" relative="1" as="geometry">
                        <mxPoint x="430" y="430" as="sourcePoint"/>
                        <mxPoint x="480" y="380" as="targetPoint"/>
                    </mxGeometry>
                </mxCell>
                <mxCell id="x1ZUqVB6L2o65wd4H-tt-7" value="&lt;font style=&quot;font-size: 15px;&quot;&gt;M&lt;/font&gt;" style="text;html=1;strokeColor=none;fillColor=none;align=center;verticalAlign=middle;whiteSpace=wrap;rounded=0;fontSize=25;" parent="1" vertex="1">
                    <mxGeometry x="350" y="110" width="20" height="30" as="geometry"/>
                </mxCell>
                <mxCell id="x1ZUqVB6L2o65wd4H-tt-8" value="&lt;font style=&quot;font-size: 15px;&quot;&gt;M&lt;/font&gt;" style="text;html=1;strokeColor=none;fillColor=none;align=center;verticalAlign=middle;whiteSpace=wrap;rounded=0;fontSize=25;" parent="1" vertex="1">
                    <mxGeometry x="440" y="110" width="20" height="30" as="geometry"/>
                </mxCell>
                <mxCell id="x1ZUqVB6L2o65wd4H-tt-9" value="" style="endArrow=none;html=1;fontSize=15;entryX=0;entryY=0.5;entryDx=0;entryDy=0;exitX=1;exitY=0.5;exitDx=0;exitDy=0;" parent="1" source="x1ZUqVB6L2o65wd4H-tt-3" target="x1ZUqVB6L2o65wd4H-tt-2" edge="1">
                    <mxGeometry width="50" height="50" relative="1" as="geometry">
                        <mxPoint x="430" y="160" as="sourcePoint"/>
                        <mxPoint x="480" y="380" as="targetPoint"/>
                    </mxGeometry>
                </mxCell>
                <mxCell id="B34xe9-bHc0KOxXKTYzR-1" value="Instractors" style="whiteSpace=wrap;html=1;aspect=fixed;" parent="1" vertex="1">
                    <mxGeometry x="-250" y="480" width="80" height="80" as="geometry"/>
                </mxCell>
                <mxCell id="B34xe9-bHc0KOxXKTYzR-2" value="work" style="rhombus;whiteSpace=wrap;html=1;fontSize=15;" parent="1" vertex="1">
                    <mxGeometry x="-120" y="245" width="80" height="80" as="geometry"/>
                </mxCell>
                <mxCell id="B34xe9-bHc0KOxXKTYzR-3" value="" style="endArrow=none;html=1;fontSize=15;entryX=0.5;entryY=1;entryDx=0;entryDy=0;exitX=0.5;exitY=0;exitDx=0;exitDy=0;" parent="1" source="B34xe9-bHc0KOxXKTYzR-2" target="x1ZUqVB6L2o65wd4H-tt-1" edge="1">
                    <mxGeometry width="50" height="50" relative="1" as="geometry">
                        <mxPoint x="430" y="430" as="sourcePoint"/>
                        <mxPoint x="480" y="380" as="targetPoint"/>
                    </mxGeometry>
                </mxCell>
                <mxCell id="B34xe9-bHc0KOxXKTYzR-4" value="" style="endArrow=none;html=1;fontSize=15;entryX=0.5;entryY=1;entryDx=0;entryDy=0;exitX=0.5;exitY=0;exitDx=0;exitDy=0;" parent="1" source="B34xe9-bHc0KOxXKTYzR-1" target="B34xe9-bHc0KOxXKTYzR-2" edge="1">
                    <mxGeometry width="50" height="50" relative="1" as="geometry">
                        <mxPoint x="430" y="430" as="sourcePoint"/>
                        <mxPoint x="480" y="380" as="targetPoint"/>
                    </mxGeometry>
                </mxCell>
                <mxCell id="B34xe9-bHc0KOxXKTYzR-5" value="1" style="text;html=1;strokeColor=none;fillColor=none;align=center;verticalAlign=middle;whiteSpace=wrap;rounded=0;fontSize=15;" parent="1" vertex="1">
                    <mxGeometry x="-130" y="207.5" width="60" height="30" as="geometry"/>
                </mxCell>
                <mxCell id="B34xe9-bHc0KOxXKTYzR-6" value="M" style="text;html=1;strokeColor=none;fillColor=none;align=center;verticalAlign=middle;whiteSpace=wrap;rounded=0;fontSize=15;" parent="1" vertex="1">
                    <mxGeometry x="-140" y="320" width="60" height="30" as="geometry"/>
                </mxCell>
                <mxCell id="1APvsUfh0vBcOlaK1SBE-1" value="Courses" style="whiteSpace=wrap;html=1;aspect=fixed;" parent="1" vertex="1">
                    <mxGeometry x="340" y="580" width="80" height="80" as="geometry"/>
                </mxCell>
                <mxCell id="1APvsUfh0vBcOlaK1SBE-2" value="teach" style="rhombus;whiteSpace=wrap;html=1;fontSize=15;" parent="1" vertex="1">
                    <mxGeometry x="400" y="290" width="80" height="80" as="geometry"/>
                </mxCell>
                <mxCell id="1APvsUfh0vBcOlaK1SBE-3" value="" style="endArrow=none;html=1;fontSize=15;entryX=0.088;entryY=0.438;entryDx=0;entryDy=0;entryPerimeter=0;exitX=1;exitY=0.5;exitDx=0;exitDy=0;" parent="1" source="B34xe9-bHc0KOxXKTYzR-1" target="1APvsUfh0vBcOlaK1SBE-2" edge="1">
                    <mxGeometry width="50" height="50" relative="1" as="geometry">
                        <mxPoint x="430" y="430" as="sourcePoint"/>
                        <mxPoint x="480" y="380" as="targetPoint"/>
                    </mxGeometry>
                </mxCell>
                <mxCell id="1APvsUfh0vBcOlaK1SBE-4" value="" style="endArrow=none;html=1;fontSize=15;entryX=0.5;entryY=1;entryDx=0;entryDy=0;exitX=0.633;exitY=-0.046;exitDx=0;exitDy=0;exitPerimeter=0;" parent="1" source="1APvsUfh0vBcOlaK1SBE-1" target="1APvsUfh0vBcOlaK1SBE-2" edge="1">
                    <mxGeometry width="50" height="50" relative="1" as="geometry">
                        <mxPoint x="430" y="430" as="sourcePoint"/>
                        <mxPoint x="480" y="380" as="targetPoint"/>
                    </mxGeometry>
                </mxCell>
                <mxCell id="1APvsUfh0vBcOlaK1SBE-5" value="" style="endArrow=none;html=1;fontSize=15;entryX=0;entryY=1;entryDx=0;entryDy=0;exitX=1;exitY=0.5;exitDx=0;exitDy=0;" parent="1" source="1APvsUfh0vBcOlaK1SBE-2" target="x1ZUqVB6L2o65wd4H-tt-2" edge="1">
                    <mxGeometry width="50" height="50" relative="1" as="geometry">
                        <mxPoint x="430" y="430" as="sourcePoint"/>
                        <mxPoint x="480" y="380" as="targetPoint"/>
                    </mxGeometry>
                </mxCell>
                <mxCell id="1APvsUfh0vBcOlaK1SBE-6" value="M" style="text;html=1;strokeColor=none;fillColor=none;align=center;verticalAlign=middle;whiteSpace=wrap;rounded=0;fontSize=15;" parent="1" vertex="1">
                    <mxGeometry x="395" y="370" width="60" height="30" as="geometry"/>
                </mxCell>
                <mxCell id="1APvsUfh0vBcOlaK1SBE-7" value="M" style="text;html=1;strokeColor=none;fillColor=none;align=center;verticalAlign=middle;whiteSpace=wrap;rounded=0;fontSize=15;" parent="1" vertex="1">
                    <mxGeometry x="350" y="310" width="60" height="30" as="geometry"/>
                </mxCell>
                <mxCell id="1APvsUfh0vBcOlaK1SBE-8" value="M" style="text;html=1;strokeColor=none;fillColor=none;align=center;verticalAlign=middle;whiteSpace=wrap;rounded=0;fontSize=15;" parent="1" vertex="1">
                    <mxGeometry x="460" y="270" width="60" height="30" as="geometry"/>
                </mxCell>
                <mxCell id="ZK8i38kiM4cNsCNuGBnY-1" value="Students&lt;br&gt;" style="whiteSpace=wrap;html=1;aspect=fixed;" parent="1" vertex="1">
                    <mxGeometry x="1500" y="40" width="80" height="80" as="geometry"/>
                </mxCell>
                <mxCell id="ZK8i38kiM4cNsCNuGBnY-2" value="is in" style="rhombus;whiteSpace=wrap;html=1;fontSize=15;" parent="1" vertex="1">
                    <mxGeometry x="840" y="110" width="80" height="80" as="geometry"/>
                </mxCell>
                <mxCell id="ZK8i38kiM4cNsCNuGBnY-5" value="" style="endArrow=none;html=1;fontSize=15;exitX=0;exitY=0.5;exitDx=0;exitDy=0;entryX=1;entryY=0.5;entryDx=0;entryDy=0;" parent="1" source="ZK8i38kiM4cNsCNuGBnY-1" target="ZK8i38kiM4cNsCNuGBnY-2" edge="1">
                    <mxGeometry width="50" height="50" relative="1" as="geometry">
                        <mxPoint x="430" y="430" as="sourcePoint"/>
                        <mxPoint x="930" y="160" as="targetPoint"/>
                    </mxGeometry>
                </mxCell>
                <mxCell id="ZK8i38kiM4cNsCNuGBnY-6" value="" style="endArrow=none;html=1;fontSize=15;entryX=1;entryY=0.5;entryDx=0;entryDy=0;exitX=0;exitY=0.5;exitDx=0;exitDy=0;" parent="1" source="ZK8i38kiM4cNsCNuGBnY-2" target="x1ZUqVB6L2o65wd4H-tt-2" edge="1">
                    <mxGeometry width="50" height="50" relative="1" as="geometry">
                        <mxPoint x="430" y="430" as="sourcePoint"/>
                        <mxPoint x="480" y="380" as="targetPoint"/>
                    </mxGeometry>
                </mxCell>
                <mxCell id="ZK8i38kiM4cNsCNuGBnY-7" value="1" style="text;html=1;strokeColor=none;fillColor=none;align=center;verticalAlign=middle;whiteSpace=wrap;rounded=0;fontSize=15;" parent="1" vertex="1">
                    <mxGeometry x="790" y="110" width="60" height="30" as="geometry"/>
                </mxCell>
                <mxCell id="ZK8i38kiM4cNsCNuGBnY-8" value="M" style="text;html=1;strokeColor=none;fillColor=none;align=center;verticalAlign=middle;whiteSpace=wrap;rounded=0;fontSize=15;" parent="1" vertex="1">
                    <mxGeometry x="910" y="110" width="60" height="30" as="geometry"/>
                </mxCell>
                <mxCell id="ZK8i38kiM4cNsCNuGBnY-9" value="is in" style="rhombus;whiteSpace=wrap;html=1;fontSize=15;" parent="1" vertex="1">
                    <mxGeometry x="360" y="-50" width="80" height="80" as="geometry"/>
                </mxCell>
                <mxCell id="ZK8i38kiM4cNsCNuGBnY-10" value="" style="endArrow=none;html=1;fontSize=15;entryX=0;entryY=0.5;entryDx=0;entryDy=0;exitX=0.638;exitY=-0.025;exitDx=0;exitDy=0;exitPerimeter=0;" parent="1" source="x1ZUqVB6L2o65wd4H-tt-1" target="ZK8i38kiM4cNsCNuGBnY-9" edge="1">
                    <mxGeometry width="50" height="50" relative="1" as="geometry">
                        <mxPoint x="430" y="130" as="sourcePoint"/>
                        <mxPoint x="480" y="80" as="targetPoint"/>
                    </mxGeometry>
                </mxCell>
                <mxCell id="ZK8i38kiM4cNsCNuGBnY-16" value="" style="endArrow=none;html=1;fontSize=15;entryX=1;entryY=0.5;entryDx=0;entryDy=0;exitX=0;exitY=0.5;exitDx=0;exitDy=0;" parent="1" source="ZK8i38kiM4cNsCNuGBnY-1" target="ZK8i38kiM4cNsCNuGBnY-9" edge="1">
                    <mxGeometry width="50" height="50" relative="1" as="geometry">
                        <mxPoint x="450" y="60" as="sourcePoint"/>
                        <mxPoint x="500" y="10" as="targetPoint"/>
                    </mxGeometry>
                </mxCell>
                <mxCell id="ZK8i38kiM4cNsCNuGBnY-17" value="1" style="text;html=1;strokeColor=none;fillColor=none;align=center;verticalAlign=middle;whiteSpace=wrap;rounded=0;fontSize=15;" parent="1" vertex="1">
                    <mxGeometry x="310" y="-40" width="60" height="30" as="geometry"/>
                </mxCell>
                <mxCell id="ZK8i38kiM4cNsCNuGBnY-18" value="M" style="text;html=1;strokeColor=none;fillColor=none;align=center;verticalAlign=middle;whiteSpace=wrap;rounded=0;fontSize=15;" parent="1" vertex="1">
                    <mxGeometry x="430" y="-40" width="60" height="30" as="geometry"/>
                </mxCell>
                <mxCell id="ab6ClW7MfKBArkYZjt3i-1" value="Topics" style="whiteSpace=wrap;html=1;aspect=fixed;" parent="1" vertex="1">
                    <mxGeometry x="70" y="630" width="80" height="80" as="geometry"/>
                </mxCell>
                <mxCell id="ab6ClW7MfKBArkYZjt3i-2" value="has" style="rhombus;whiteSpace=wrap;html=1;fontSize=15;" parent="1" vertex="1">
                    <mxGeometry x="200" y="525" width="80" height="80" as="geometry"/>
                </mxCell>
                <mxCell id="ab6ClW7MfKBArkYZjt3i-3" value="" style="endArrow=none;html=1;fontSize=15;entryX=0;entryY=0.5;entryDx=0;entryDy=0;exitX=1;exitY=0.5;exitDx=0;exitDy=0;" parent="1" source="ab6ClW7MfKBArkYZjt3i-2" target="1APvsUfh0vBcOlaK1SBE-1" edge="1">
                    <mxGeometry width="50" height="50" relative="1" as="geometry">
                        <mxPoint x="430" y="750" as="sourcePoint"/>
                        <mxPoint x="480" y="700" as="targetPoint"/>
                    </mxGeometry>
                </mxCell>
                <mxCell id="ab6ClW7MfKBArkYZjt3i-4" value="" style="endArrow=none;html=1;fontSize=15;entryX=0;entryY=0.5;entryDx=0;entryDy=0;exitX=0.25;exitY=0;exitDx=0;exitDy=0;" parent="1" source="ab6ClW7MfKBArkYZjt3i-1" target="ab6ClW7MfKBArkYZjt3i-2" edge="1">
                    <mxGeometry width="50" height="50" relative="1" as="geometry">
                        <mxPoint x="430" y="750" as="sourcePoint"/>
                        <mxPoint x="480" y="700" as="targetPoint"/>
                    </mxGeometry>
                </mxCell>
                <mxCell id="ab6ClW7MfKBArkYZjt3i-5" value="1" style="text;html=1;strokeColor=none;fillColor=none;align=center;verticalAlign=middle;whiteSpace=wrap;rounded=0;fontSize=15;" parent="1" vertex="1">
                    <mxGeometry x="270" y="545" width="60" height="30" as="geometry"/>
                </mxCell>
                <mxCell id="ab6ClW7MfKBArkYZjt3i-6" value="M" style="text;html=1;strokeColor=none;fillColor=none;align=center;verticalAlign=middle;whiteSpace=wrap;rounded=0;fontSize=15;" parent="1" vertex="1">
                    <mxGeometry x="140" y="545" width="60" height="30" as="geometry"/>
                </mxCell>
                <mxCell id="Ij5aEjueVrOiI7BzLRH4-1" value="Questions" style="whiteSpace=wrap;html=1;aspect=fixed;" parent="1" vertex="1">
                    <mxGeometry x="60" y="960" width="80" height="80" as="geometry"/>
                </mxCell>
                <mxCell id="5678s7QexzbHqd27030S-1" value="has" style="rhombus;whiteSpace=wrap;html=1;fontSize=15;" parent="1" vertex="1">
                    <mxGeometry x="70" y="780" width="80" height="80" as="geometry"/>
                </mxCell>
                <mxCell id="5678s7QexzbHqd27030S-2" value="" style="endArrow=none;html=1;fontSize=15;entryX=0.5;entryY=1;entryDx=0;entryDy=0;exitX=0.5;exitY=0;exitDx=0;exitDy=0;" parent="1" source="Ij5aEjueVrOiI7BzLRH4-1" target="5678s7QexzbHqd27030S-1" edge="1">
                    <mxGeometry width="50" height="50" relative="1" as="geometry">
                        <mxPoint x="430" y="750" as="sourcePoint"/>
                        <mxPoint x="480" y="700" as="targetPoint"/>
                    </mxGeometry>
                </mxCell>
                <mxCell id="5678s7QexzbHqd27030S-4" value="" style="endArrow=none;html=1;fontSize=15;entryX=0.5;entryY=1;entryDx=0;entryDy=0;exitX=0.5;exitY=0;exitDx=0;exitDy=0;" parent="1" source="5678s7QexzbHqd27030S-1" target="ab6ClW7MfKBArkYZjt3i-1" edge="1">
                    <mxGeometry width="50" height="50" relative="1" as="geometry">
                        <mxPoint x="70" y="760" as="sourcePoint"/>
                        <mxPoint x="120" y="710" as="targetPoint"/>
                    </mxGeometry>
                </mxCell>
                <mxCell id="5678s7QexzbHqd27030S-5" value="1" style="text;html=1;strokeColor=none;fillColor=none;align=center;verticalAlign=middle;whiteSpace=wrap;rounded=0;fontSize=15;" parent="1" vertex="1">
                    <mxGeometry x="70" y="750" width="60" height="30" as="geometry"/>
                </mxCell>
                <mxCell id="5678s7QexzbHqd27030S-6" value="M" style="text;html=1;strokeColor=none;fillColor=none;align=center;verticalAlign=middle;whiteSpace=wrap;rounded=0;fontSize=15;" parent="1" vertex="1">
                    <mxGeometry x="60" y="860" width="60" height="30" as="geometry"/>
                </mxCell>
                <mxCell id="MNkr-cBMKgHOvFw-JObe-1" value="Multi_Choices&lt;br&gt;Questions_Answers" style="whiteSpace=wrap;html=1;aspect=fixed;fontStyle=1" parent="1" vertex="1">
                    <mxGeometry x="40" y="1360" width="120" height="120" as="geometry"/>
                </mxCell>
                <mxCell id="MNkr-cBMKgHOvFw-JObe-2" value="has" style="rhombus;whiteSpace=wrap;html=1;fontSize=15;" parent="1" vertex="1">
                    <mxGeometry x="40" y="1180" width="80" height="80" as="geometry"/>
                </mxCell>
                <mxCell id="MNkr-cBMKgHOvFw-JObe-3" value="" style="endArrow=none;html=1;fontSize=15;entryX=0;entryY=0.5;entryDx=0;entryDy=0;exitX=0.25;exitY=1;exitDx=0;exitDy=0;" parent="1" source="Ij5aEjueVrOiI7BzLRH4-1" target="MNkr-cBMKgHOvFw-JObe-2" edge="1">
                    <mxGeometry width="50" height="50" relative="1" as="geometry">
                        <mxPoint x="430" y="840" as="sourcePoint"/>
                        <mxPoint x="480" y="790" as="targetPoint"/>
                    </mxGeometry>
                </mxCell>
                <mxCell id="MNkr-cBMKgHOvFw-JObe-4" value="" style="endArrow=none;html=1;fontSize=15;entryX=0.5;entryY=0;entryDx=0;entryDy=0;" parent="1" source="MNkr-cBMKgHOvFw-JObe-2" target="MNkr-cBMKgHOvFw-JObe-1" edge="1">
                    <mxGeometry width="50" height="50" relative="1" as="geometry">
                        <mxPoint x="430" y="840" as="sourcePoint"/>
                        <mxPoint x="480" y="790" as="targetPoint"/>
                    </mxGeometry>
                </mxCell>
                <mxCell id="MNkr-cBMKgHOvFw-JObe-5" value="1" style="text;html=1;strokeColor=none;fillColor=none;align=center;verticalAlign=middle;whiteSpace=wrap;rounded=0;fontSize=15;" parent="1" vertex="1">
                    <mxGeometry y="1160" width="60" height="30" as="geometry"/>
                </mxCell>
                <mxCell id="MNkr-cBMKgHOvFw-JObe-6" value="M" style="text;html=1;strokeColor=none;fillColor=none;align=center;verticalAlign=middle;whiteSpace=wrap;rounded=0;fontSize=15;" parent="1" vertex="1">
                    <mxGeometry x="30" y="1260" width="60" height="30" as="geometry"/>
                </mxCell>
                <mxCell id="RWAqOIKECp84sDF3Jtlx-1" value="Exams" style="whiteSpace=wrap;html=1;aspect=fixed;" parent="1" vertex="1">
                    <mxGeometry x="1280" y="770" width="80" height="80" as="geometry"/>
                </mxCell>
                <mxCell id="RWAqOIKECp84sDF3Jtlx-2" value="consiste of" style="rhombus;whiteSpace=wrap;html=1;fontSize=15;" parent="1" vertex="1">
                    <mxGeometry x="400" y="770" width="100" height="80" as="geometry"/>
                </mxCell>
                <mxCell id="RWAqOIKECp84sDF3Jtlx-3" value="" style="endArrow=none;html=1;fontSize=15;entryX=0;entryY=0.5;entryDx=0;entryDy=0;exitX=1;exitY=0;exitDx=0;exitDy=0;" parent="1" source="Ij5aEjueVrOiI7BzLRH4-1" target="RWAqOIKECp84sDF3Jtlx-2" edge="1">
                    <mxGeometry width="50" height="50" relative="1" as="geometry">
                        <mxPoint x="430" y="840" as="sourcePoint"/>
                        <mxPoint x="480" y="790" as="targetPoint"/>
                    </mxGeometry>
                </mxCell>
                <mxCell id="RWAqOIKECp84sDF3Jtlx-4" value="" style="endArrow=none;html=1;fontSize=15;entryX=0;entryY=0.5;entryDx=0;entryDy=0;exitX=1;exitY=0.5;exitDx=0;exitDy=0;" parent="1" source="RWAqOIKECp84sDF3Jtlx-2" target="RWAqOIKECp84sDF3Jtlx-1" edge="1">
                    <mxGeometry width="50" height="50" relative="1" as="geometry">
                        <mxPoint x="430" y="840" as="sourcePoint"/>
                        <mxPoint x="480" y="790" as="targetPoint"/>
                    </mxGeometry>
                </mxCell>
                <mxCell id="RWAqOIKECp84sDF3Jtlx-5" value="M" style="text;html=1;strokeColor=none;fillColor=none;align=center;verticalAlign=middle;whiteSpace=wrap;rounded=0;fontSize=15;" parent="1" vertex="1">
                    <mxGeometry x="480" y="780" width="60" height="30" as="geometry"/>
                </mxCell>
                <mxCell id="RWAqOIKECp84sDF3Jtlx-6" value="M" style="text;html=1;strokeColor=none;fillColor=none;align=center;verticalAlign=middle;whiteSpace=wrap;rounded=0;fontSize=15;" parent="1" vertex="1">
                    <mxGeometry x="340" y="795" width="60" height="30" as="geometry"/>
                </mxCell>
                <mxCell id="5En7IW4vDncshQzcjhbE-1" value="has" style="rhombus;whiteSpace=wrap;html=1;fontSize=15;" parent="1" vertex="1">
                    <mxGeometry x="1050" y="560" width="80" height="80" as="geometry"/>
                </mxCell>
                <mxCell id="5En7IW4vDncshQzcjhbE-2" value="" style="endArrow=none;html=1;fontSize=15;entryX=0;entryY=0.5;entryDx=0;entryDy=0;exitX=1;exitY=0.5;exitDx=0;exitDy=0;" parent="1" source="5En7IW4vDncshQzcjhbE-1" target="ZK8i38kiM4cNsCNuGBnY-1" edge="1">
                    <mxGeometry width="50" height="50" relative="1" as="geometry">
                        <mxPoint x="660" y="400" as="sourcePoint"/>
                        <mxPoint x="710" y="350" as="targetPoint"/>
                    </mxGeometry>
                </mxCell>
                <mxCell id="5En7IW4vDncshQzcjhbE-3" value="" style="endArrow=none;html=1;fontSize=15;entryX=0;entryY=0.5;entryDx=0;entryDy=0;exitX=1;exitY=0.5;exitDx=0;exitDy=0;" parent="1" source="RWAqOIKECp84sDF3Jtlx-1" target="5En7IW4vDncshQzcjhbE-1" edge="1">
                    <mxGeometry width="50" height="50" relative="1" as="geometry">
                        <mxPoint x="660" y="400" as="sourcePoint"/>
                        <mxPoint x="710" y="350" as="targetPoint"/>
                    </mxGeometry>
                </mxCell>
                <mxCell id="5En7IW4vDncshQzcjhbE-4" value="M" style="text;html=1;strokeColor=none;fillColor=none;align=center;verticalAlign=middle;whiteSpace=wrap;rounded=0;fontSize=15;" parent="1" vertex="1">
                    <mxGeometry x="1100" y="540" width="60" height="30" as="geometry"/>
                </mxCell>
                <mxCell id="5En7IW4vDncshQzcjhbE-5" value="M" style="text;html=1;strokeColor=none;fillColor=none;align=center;verticalAlign=middle;whiteSpace=wrap;rounded=0;fontSize=15;" parent="1" vertex="1">
                    <mxGeometry x="1010" y="625" width="60" height="30" as="geometry"/>
                </mxCell>
                <mxCell id="5En7IW4vDncshQzcjhbE-6" value="Solve" style="rhombus;whiteSpace=wrap;html=1;fontSize=15;" parent="1" vertex="1">
                    <mxGeometry x="1140" y="1300" width="350" height="270" as="geometry"/>
                </mxCell>
                <mxCell id="5En7IW4vDncshQzcjhbE-10" value="" style="endArrow=none;html=1;fontSize=15;exitX=1;exitY=0.5;exitDx=0;exitDy=0;entryX=0;entryY=0.5;entryDx=0;entryDy=0;" parent="1" source="5En7IW4vDncshQzcjhbE-6" target="ZK8i38kiM4cNsCNuGBnY-1" edge="1">
                    <mxGeometry width="50" height="50" relative="1" as="geometry">
                        <mxPoint x="1220" y="940" as="sourcePoint"/>
                        <mxPoint x="1270" y="890" as="targetPoint"/>
                    </mxGeometry>
                </mxCell>
                <mxCell id="5En7IW4vDncshQzcjhbE-11" value="" style="endArrow=none;html=1;fontSize=15;exitX=1;exitY=1;exitDx=0;exitDy=0;entryX=0;entryY=0.5;entryDx=0;entryDy=0;" parent="1" source="Ij5aEjueVrOiI7BzLRH4-1" target="5En7IW4vDncshQzcjhbE-6" edge="1">
                    <mxGeometry width="50" height="50" relative="1" as="geometry">
                        <mxPoint x="660" y="940" as="sourcePoint"/>
                        <mxPoint x="710" y="890" as="targetPoint"/>
                    </mxGeometry>
                </mxCell>
                <mxCell id="5En7IW4vDncshQzcjhbE-12" value="" style="endArrow=none;html=1;fontSize=15;entryX=0.5;entryY=1;entryDx=0;entryDy=0;exitX=0.5;exitY=0;exitDx=0;exitDy=0;" parent="1" source="5En7IW4vDncshQzcjhbE-6" target="RWAqOIKECp84sDF3Jtlx-1" edge="1">
                    <mxGeometry width="50" height="50" relative="1" as="geometry">
                        <mxPoint x="660" y="970" as="sourcePoint"/>
                        <mxPoint x="710" y="920" as="targetPoint"/>
                    </mxGeometry>
                </mxCell>
                <mxCell id="5En7IW4vDncshQzcjhbE-13" value="student Answer" style="ellipse;whiteSpace=wrap;html=1;fontSize=15;" parent="1" vertex="1">
                    <mxGeometry x="1250" y="1630" width="120" height="80" as="geometry"/>
                </mxCell>
                <mxCell id="5En7IW4vDncshQzcjhbE-14" value="" style="endArrow=none;html=1;fontSize=15;exitX=0.5;exitY=0;exitDx=0;exitDy=0;entryX=0.5;entryY=1;entryDx=0;entryDy=0;" parent="1" source="5En7IW4vDncshQzcjhbE-13" target="5En7IW4vDncshQzcjhbE-6" edge="1">
                    <mxGeometry width="50" height="50" relative="1" as="geometry">
                        <mxPoint x="1150" y="1330" as="sourcePoint"/>
                        <mxPoint x="1200" y="1280" as="targetPoint"/>
                    </mxGeometry>
                </mxCell>
                <mxCell id="5En7IW4vDncshQzcjhbE-15" value="" style="endArrow=none;html=1;fontSize=15;entryX=0.5;entryY=0;entryDx=0;entryDy=0;startArrow=none;exitX=0.5;exitY=1;exitDx=0;exitDy=0;" parent="1" source="5En7IW4vDncshQzcjhbE-16" target="5En7IW4vDncshQzcjhbE-1" edge="1">
                    <mxGeometry width="50" height="50" relative="1" as="geometry">
                        <mxPoint x="1090" y="525" as="sourcePoint"/>
                        <mxPoint x="710" y="830" as="targetPoint"/>
                    </mxGeometry>
                </mxCell>
                <mxCell id="5En7IW4vDncshQzcjhbE-16" value="Grade" style="ellipse;whiteSpace=wrap;html=1;fontSize=15;" parent="1" vertex="1">
                    <mxGeometry x="930" y="410" width="120" height="80" as="geometry"/>
                </mxCell>
                <mxCell id="9ywBwpJ867fxIrzeouce-1" value="id" style="ellipse;whiteSpace=wrap;html=1;fontSize=15;" parent="1" vertex="1">
                    <mxGeometry x="1470" y="-35" width="80" height="50" as="geometry"/>
                </mxCell>
                <mxCell id="9ywBwpJ867fxIrzeouce-2" value="name" style="ellipse;whiteSpace=wrap;html=1;fontSize=15;" parent="1" vertex="1">
                    <mxGeometry x="1570" y="-35" width="80" height="50" as="geometry"/>
                </mxCell>
                <mxCell id="9ywBwpJ867fxIrzeouce-3" value="Fname" style="ellipse;whiteSpace=wrap;html=1;fontSize=15;" parent="1" vertex="1">
                    <mxGeometry x="1550" y="-110" width="70" height="50" as="geometry"/>
                </mxCell>
                <mxCell id="9ywBwpJ867fxIrzeouce-7" style="edgeStyle=none;html=1;exitX=0;exitY=1;exitDx=0;exitDy=0;entryX=1;entryY=0;entryDx=0;entryDy=0;fontSize=15;" parent="1" source="9ywBwpJ867fxIrzeouce-4" target="9ywBwpJ867fxIrzeouce-2" edge="1">
                    <mxGeometry relative="1" as="geometry"/>
                </mxCell>
                <mxCell id="9ywBwpJ867fxIrzeouce-4" value="Lname" style="ellipse;whiteSpace=wrap;html=1;fontSize=15;" parent="1" vertex="1">
                    <mxGeometry x="1630" y="-100" width="70" height="40" as="geometry"/>
                </mxCell>
                <mxCell id="9ywBwpJ867fxIrzeouce-5" value="" style="endArrow=none;html=1;fontSize=15;entryX=0.352;entryY=1.007;entryDx=0;entryDy=0;entryPerimeter=0;exitX=0;exitY=0;exitDx=0;exitDy=0;" parent="1" source="9ywBwpJ867fxIrzeouce-2" target="9ywBwpJ867fxIrzeouce-3" edge="1">
                    <mxGeometry width="50" height="50" relative="1" as="geometry">
                        <mxPoint x="1020" y="180" as="sourcePoint"/>
                        <mxPoint x="1070" y="130" as="targetPoint"/>
                    </mxGeometry>
                </mxCell>
                <mxCell id="9ywBwpJ867fxIrzeouce-6" value="" style="endArrow=none;html=1;fontSize=15;entryX=0.5;entryY=1;entryDx=0;entryDy=0;" parent="1" source="ZK8i38kiM4cNsCNuGBnY-1" target="9ywBwpJ867fxIrzeouce-1" edge="1">
                    <mxGeometry width="50" height="50" relative="1" as="geometry">
                        <mxPoint x="1520" y="40" as="sourcePoint"/>
                        <mxPoint x="1070" y="130" as="targetPoint"/>
                    </mxGeometry>
                </mxCell>
                <mxCell id="9ywBwpJ867fxIrzeouce-8" value="" style="endArrow=none;html=1;fontSize=15;entryX=0.5;entryY=1;entryDx=0;entryDy=0;exitX=1;exitY=0;exitDx=0;exitDy=0;" parent="1" source="ZK8i38kiM4cNsCNuGBnY-1" target="9ywBwpJ867fxIrzeouce-2" edge="1">
                    <mxGeometry width="50" height="50" relative="1" as="geometry">
                        <mxPoint x="1020" y="180" as="sourcePoint"/>
                        <mxPoint x="1070" y="130" as="targetPoint"/>
                    </mxGeometry>
                </mxCell>
                <mxCell id="9ywBwpJ867fxIrzeouce-9" value="Email" style="ellipse;whiteSpace=wrap;html=1;fontSize=15;" parent="1" vertex="1">
                    <mxGeometry x="1620" y="30" width="70" height="40" as="geometry"/>
                </mxCell>
                <mxCell id="9ywBwpJ867fxIrzeouce-10" value="Password" style="ellipse;whiteSpace=wrap;html=1;fontSize=15;" parent="1" vertex="1">
                    <mxGeometry x="1620" y="80" width="70" height="50" as="geometry"/>
                </mxCell>
                <mxCell id="9ywBwpJ867fxIrzeouce-11" value="Address" style="ellipse;whiteSpace=wrap;html=1;fontSize=15;" parent="1" vertex="1">
                    <mxGeometry x="1640" y="170" width="80" height="50" as="geometry"/>
                </mxCell>
                <mxCell id="9ywBwpJ867fxIrzeouce-12" value="" style="endArrow=none;html=1;fontSize=15;entryX=0;entryY=0.5;entryDx=0;entryDy=0;exitX=1;exitY=0.5;exitDx=0;exitDy=0;" parent="1" source="ZK8i38kiM4cNsCNuGBnY-1" target="9ywBwpJ867fxIrzeouce-9" edge="1">
                    <mxGeometry width="50" height="50" relative="1" as="geometry">
                        <mxPoint x="1020" y="180" as="sourcePoint"/>
                        <mxPoint x="1070" y="130" as="targetPoint"/>
                    </mxGeometry>
                </mxCell>
                <mxCell id="9ywBwpJ867fxIrzeouce-13" value="" style="endArrow=none;html=1;fontSize=15;entryX=0;entryY=0.5;entryDx=0;entryDy=0;exitX=1;exitY=0.75;exitDx=0;exitDy=0;" parent="1" source="ZK8i38kiM4cNsCNuGBnY-1" target="9ywBwpJ867fxIrzeouce-10" edge="1">
                    <mxGeometry width="50" height="50" relative="1" as="geometry">
                        <mxPoint x="1020" y="180" as="sourcePoint"/>
                        <mxPoint x="1070" y="130" as="targetPoint"/>
                    </mxGeometry>
                </mxCell>
                <mxCell id="9ywBwpJ867fxIrzeouce-14" value="Street" style="ellipse;whiteSpace=wrap;html=1;fontSize=15;" parent="1" vertex="1">
                    <mxGeometry x="1750" y="150" width="70" height="30" as="geometry"/>
                </mxCell>
                <mxCell id="9ywBwpJ867fxIrzeouce-15" value="City" style="ellipse;whiteSpace=wrap;html=1;fontSize=15;" parent="1" vertex="1">
                    <mxGeometry x="1750" y="190" width="90" height="40" as="geometry"/>
                </mxCell>
                <mxCell id="9ywBwpJ867fxIrzeouce-17" value="" style="endArrow=none;html=1;fontSize=15;entryX=0;entryY=0.5;entryDx=0;entryDy=0;exitX=1;exitY=0;exitDx=0;exitDy=0;" parent="1" source="9ywBwpJ867fxIrzeouce-11" target="9ywBwpJ867fxIrzeouce-14" edge="1">
                    <mxGeometry width="50" height="50" relative="1" as="geometry">
                        <mxPoint x="1020" y="180" as="sourcePoint"/>
                        <mxPoint x="1070" y="130" as="targetPoint"/>
                    </mxGeometry>
                </mxCell>
                <mxCell id="9ywBwpJ867fxIrzeouce-18" value="" style="endArrow=none;html=1;fontSize=15;entryX=0;entryY=0.5;entryDx=0;entryDy=0;exitX=1;exitY=0.5;exitDx=0;exitDy=0;" parent="1" source="9ywBwpJ867fxIrzeouce-11" target="9ywBwpJ867fxIrzeouce-15" edge="1">
                    <mxGeometry width="50" height="50" relative="1" as="geometry">
                        <mxPoint x="1020" y="180" as="sourcePoint"/>
                        <mxPoint x="1070" y="130" as="targetPoint"/>
                    </mxGeometry>
                </mxCell>
                <mxCell id="9ywBwpJ867fxIrzeouce-20" value="" style="endArrow=none;html=1;fontSize=15;entryX=1;entryY=1;entryDx=0;entryDy=0;exitX=0;exitY=0.687;exitDx=0;exitDy=0;exitPerimeter=0;" parent="1" source="9ywBwpJ867fxIrzeouce-11" target="ZK8i38kiM4cNsCNuGBnY-1" edge="1">
                    <mxGeometry width="50" height="50" relative="1" as="geometry">
                        <mxPoint x="1020" y="180" as="sourcePoint"/>
                        <mxPoint x="1070" y="130" as="targetPoint"/>
                    </mxGeometry>
                </mxCell>
                <mxCell id="9ywBwpJ867fxIrzeouce-22" value="" style="endArrow=none;html=1;fontSize=15;entryX=0.75;entryY=1;entryDx=0;entryDy=0;exitX=0.278;exitY=0.087;exitDx=0;exitDy=0;exitPerimeter=0;" parent="1" source="9ywBwpJ867fxIrzeouce-23" target="ZK8i38kiM4cNsCNuGBnY-1" edge="1">
                    <mxGeometry width="50" height="50" relative="1" as="geometry">
                        <mxPoint x="1620" y="250" as="sourcePoint"/>
                        <mxPoint x="1070" y="130" as="targetPoint"/>
                    </mxGeometry>
                </mxCell>
                <mxCell id="9ywBwpJ867fxIrzeouce-23" value="Birth_Of_Date" style="ellipse;whiteSpace=wrap;html=1;fontSize=15;" parent="1" vertex="1">
                    <mxGeometry x="1620" y="260" width="120" height="50" as="geometry"/>
                </mxCell>
                <mxCell id="9ywBwpJ867fxIrzeouce-24" value="Gender" style="ellipse;whiteSpace=wrap;html=1;fontSize=15;" parent="1" vertex="1">
                    <mxGeometry x="1710" y="-35" width="100" height="40" as="geometry"/>
                </mxCell>
                <mxCell id="9ywBwpJ867fxIrzeouce-25" value="" style="endArrow=none;html=1;fontSize=15;entryX=0;entryY=0.5;entryDx=0;entryDy=0;exitX=1;exitY=0.25;exitDx=0;exitDy=0;" parent="1" source="ZK8i38kiM4cNsCNuGBnY-1" target="9ywBwpJ867fxIrzeouce-24" edge="1">
                    <mxGeometry width="50" height="50" relative="1" as="geometry">
                        <mxPoint x="1020" y="180" as="sourcePoint"/>
                        <mxPoint x="1070" y="130" as="targetPoint"/>
                    </mxGeometry>
                </mxCell>
                <mxCell id="9ywBwpJ867fxIrzeouce-27" value="" style="endArrow=none;html=1;fontSize=15;" parent="1" edge="1">
                    <mxGeometry width="50" height="50" relative="1" as="geometry">
                        <mxPoint x="1490" as="sourcePoint"/>
                        <mxPoint x="1530" as="targetPoint"/>
                    </mxGeometry>
                </mxCell>
                <mxCell id="9ywBwpJ867fxIrzeouce-28" value="ID" style="ellipse;whiteSpace=wrap;html=1;fontSize=15;" parent="1" vertex="1">
                    <mxGeometry x="570" y="252.5" width="60" height="25" as="geometry"/>
                </mxCell>
                <mxCell id="9ywBwpJ867fxIrzeouce-29" value="" style="endArrow=none;html=1;fontSize=15;entryX=0.25;entryY=1;entryDx=0;entryDy=0;exitX=0.356;exitY=-0.06;exitDx=0;exitDy=0;exitPerimeter=0;" parent="1" source="9ywBwpJ867fxIrzeouce-28" target="x1ZUqVB6L2o65wd4H-tt-2" edge="1">
                    <mxGeometry width="50" height="50" relative="1" as="geometry">
                        <mxPoint x="520" y="340" as="sourcePoint"/>
                        <mxPoint x="570" y="290" as="targetPoint"/>
                    </mxGeometry>
                </mxCell>
                <mxCell id="9ywBwpJ867fxIrzeouce-30" value="Age" style="ellipse;whiteSpace=wrap;html=1;fontSize=15;dashed=1;dashPattern=8 8;" parent="1" vertex="1">
                    <mxGeometry x="1560" y="300" width="80" height="40" as="geometry"/>
                </mxCell>
                <mxCell id="9ywBwpJ867fxIrzeouce-31" value="" style="endArrow=none;html=1;fontSize=15;entryX=0.75;entryY=1;entryDx=0;entryDy=0;exitX=0.5;exitY=0;exitDx=0;exitDy=0;" parent="1" source="9ywBwpJ867fxIrzeouce-30" target="ZK8i38kiM4cNsCNuGBnY-1" edge="1">
                    <mxGeometry width="50" height="50" relative="1" as="geometry">
                        <mxPoint x="1900" y="180" as="sourcePoint"/>
                        <mxPoint x="1950" y="130" as="targetPoint"/>
                    </mxGeometry>
                </mxCell>
                <mxCell id="9ywBwpJ867fxIrzeouce-32" value="Name" style="ellipse;whiteSpace=wrap;html=1;fontSize=15;" parent="1" vertex="1">
                    <mxGeometry x="640" y="240" width="60" height="25" as="geometry"/>
                </mxCell>
                <mxCell id="9ywBwpJ867fxIrzeouce-33" value="" style="endArrow=none;html=1;fontSize=15;entryX=0.75;entryY=1;entryDx=0;entryDy=0;exitX=0;exitY=0;exitDx=0;exitDy=0;" parent="1" source="9ywBwpJ867fxIrzeouce-32" target="x1ZUqVB6L2o65wd4H-tt-2" edge="1">
                    <mxGeometry width="50" height="50" relative="1" as="geometry">
                        <mxPoint x="560" y="340" as="sourcePoint"/>
                        <mxPoint x="610" y="290" as="targetPoint"/>
                    </mxGeometry>
                </mxCell>
                <mxCell id="9ywBwpJ867fxIrzeouce-34" value="Capacity" style="ellipse;whiteSpace=wrap;html=1;dashed=1;dashPattern=8 8;fontSize=15;" parent="1" vertex="1">
                    <mxGeometry x="610" y="295" width="80" height="30" as="geometry"/>
                </mxCell>
                <mxCell id="9ywBwpJ867fxIrzeouce-35" value="" style="endArrow=none;html=1;fontSize=15;entryX=0.5;entryY=1;entryDx=0;entryDy=0;" parent="1" source="9ywBwpJ867fxIrzeouce-34" target="x1ZUqVB6L2o65wd4H-tt-2" edge="1">
                    <mxGeometry width="50" height="50" relative="1" as="geometry">
                        <mxPoint x="560" y="340" as="sourcePoint"/>
                        <mxPoint x="610" y="290" as="targetPoint"/>
                    </mxGeometry>
                </mxCell>
                <mxCell id="9ywBwpJ867fxIrzeouce-38" value="ID" style="ellipse;whiteSpace=wrap;html=1;fontSize=15;" parent="1" vertex="1">
                    <mxGeometry x="-230" y="-20" width="90" height="50" as="geometry"/>
                </mxCell>
                <mxCell id="9ywBwpJ867fxIrzeouce-39" value="" style="endArrow=none;html=1;fontSize=15;" parent="1" edge="1">
                    <mxGeometry width="50" height="50" relative="1" as="geometry">
                        <mxPoint x="570" y="270" as="sourcePoint"/>
                        <mxPoint x="630" y="270" as="targetPoint"/>
                    </mxGeometry>
                </mxCell>
                <mxCell id="9ywBwpJ867fxIrzeouce-40" value="Name" style="ellipse;whiteSpace=wrap;html=1;fontSize=15;" parent="1" vertex="1">
                    <mxGeometry x="-240" y="50" width="90" height="30" as="geometry"/>
                </mxCell>
                <mxCell id="9ywBwpJ867fxIrzeouce-41" value="" style="endArrow=none;html=1;fontSize=15;" parent="1" edge="1">
                    <mxGeometry width="50" height="50" relative="1" as="geometry">
                        <mxPoint x="-205" y="20" as="sourcePoint"/>
                        <mxPoint x="-165" y="20" as="targetPoint"/>
                    </mxGeometry>
                </mxCell>
                <mxCell id="9ywBwpJ867fxIrzeouce-43" value="" style="endArrow=none;html=1;fontSize=15;entryX=1;entryY=0.5;entryDx=0;entryDy=0;exitX=0;exitY=0.5;exitDx=0;exitDy=0;" parent="1" source="x1ZUqVB6L2o65wd4H-tt-1" target="9ywBwpJ867fxIrzeouce-40" edge="1">
                    <mxGeometry width="50" height="50" relative="1" as="geometry">
                        <mxPoint x="40" y="90" as="sourcePoint"/>
                        <mxPoint x="90" y="40" as="targetPoint"/>
                    </mxGeometry>
                </mxCell>
                <mxCell id="9ywBwpJ867fxIrzeouce-44" value="" style="endArrow=none;html=1;fontSize=15;entryX=1;entryY=0.5;entryDx=0;entryDy=0;exitX=0;exitY=0;exitDx=0;exitDy=0;" parent="1" source="x1ZUqVB6L2o65wd4H-tt-1" target="9ywBwpJ867fxIrzeouce-38" edge="1">
                    <mxGeometry width="50" height="50" relative="1" as="geometry">
                        <mxPoint x="40" y="90" as="sourcePoint"/>
                        <mxPoint x="90" y="40" as="targetPoint"/>
                    </mxGeometry>
                </mxCell>
                <mxCell id="9ywBwpJ867fxIrzeouce-45" value="Address" style="ellipse;whiteSpace=wrap;html=1;fontSize=15;" parent="1" vertex="1">
                    <mxGeometry x="-235" y="120" width="80" height="30" as="geometry"/>
                </mxCell>
                <mxCell id="9ywBwpJ867fxIrzeouce-46" value="" style="endArrow=none;html=1;fontSize=15;entryX=0;entryY=0.75;entryDx=0;entryDy=0;exitX=1;exitY=0.5;exitDx=0;exitDy=0;" parent="1" source="9ywBwpJ867fxIrzeouce-45" target="x1ZUqVB6L2o65wd4H-tt-1" edge="1">
                    <mxGeometry width="50" height="50" relative="1" as="geometry">
                        <mxPoint x="40" y="230" as="sourcePoint"/>
                        <mxPoint x="90" y="180" as="targetPoint"/>
                    </mxGeometry>
                </mxCell>
                <mxCell id="9ywBwpJ867fxIrzeouce-47" value="Number_Of_Building" style="ellipse;whiteSpace=wrap;html=1;fontSize=15;" parent="1" vertex="1">
                    <mxGeometry x="-420" y="90" width="150" height="50" as="geometry"/>
                </mxCell>
                <mxCell id="9ywBwpJ867fxIrzeouce-48" value="Sreet" style="ellipse;whiteSpace=wrap;html=1;fontSize=15;" parent="1" vertex="1">
                    <mxGeometry x="-360" y="150" width="100" height="40" as="geometry"/>
                </mxCell>
                <mxCell id="9ywBwpJ867fxIrzeouce-49" value="City" style="ellipse;whiteSpace=wrap;html=1;fontSize=15;" parent="1" vertex="1">
                    <mxGeometry x="-350" y="205" width="110" height="35" as="geometry"/>
                </mxCell>
                <mxCell id="9ywBwpJ867fxIrzeouce-53" value="" style="endArrow=none;html=1;fontSize=15;entryX=0.987;entryY=0.713;entryDx=0;entryDy=0;entryPerimeter=0;exitX=0;exitY=0.5;exitDx=0;exitDy=0;" parent="1" source="9ywBwpJ867fxIrzeouce-45" target="9ywBwpJ867fxIrzeouce-47" edge="1">
                    <mxGeometry width="50" height="50" relative="1" as="geometry">
                        <mxPoint x="40" y="230" as="sourcePoint"/>
                        <mxPoint x="90" y="180" as="targetPoint"/>
                    </mxGeometry>
                </mxCell>
                <mxCell id="9ywBwpJ867fxIrzeouce-54" value="" style="endArrow=none;html=1;fontSize=15;entryX=0;entryY=1;entryDx=0;entryDy=0;exitX=1;exitY=0.5;exitDx=0;exitDy=0;" parent="1" source="9ywBwpJ867fxIrzeouce-48" target="9ywBwpJ867fxIrzeouce-45" edge="1">
                    <mxGeometry width="50" height="50" relative="1" as="geometry">
                        <mxPoint x="40" y="230" as="sourcePoint"/>
                        <mxPoint x="90" y="180" as="targetPoint"/>
                    </mxGeometry>
                </mxCell>
                <mxCell id="9ywBwpJ867fxIrzeouce-55" value="" style="endArrow=none;html=1;fontSize=15;entryX=0.5;entryY=1;entryDx=0;entryDy=0;exitX=0.956;exitY=0.2;exitDx=0;exitDy=0;exitPerimeter=0;" parent="1" source="9ywBwpJ867fxIrzeouce-49" target="9ywBwpJ867fxIrzeouce-45" edge="1">
                    <mxGeometry width="50" height="50" relative="1" as="geometry">
                        <mxPoint x="40" y="230" as="sourcePoint"/>
                        <mxPoint x="90" y="180" as="targetPoint"/>
                    </mxGeometry>
                </mxCell>
                <mxCell id="9ywBwpJ867fxIrzeouce-56" value="" style="endArrow=none;html=1;fontSize=15;entryX=0;entryY=0;entryDx=0;entryDy=0;exitX=1;exitY=1;exitDx=0;exitDy=0;" parent="1" source="9ywBwpJ867fxIrzeouce-58" target="B34xe9-bHc0KOxXKTYzR-1" edge="1">
                    <mxGeometry width="50" height="50" relative="1" as="geometry">
                        <mxPoint x="-350" y="530" as="sourcePoint"/>
                        <mxPoint x="200" y="660" as="targetPoint"/>
                    </mxGeometry>
                </mxCell>
                <mxCell id="9ywBwpJ867fxIrzeouce-57" value="id" style="ellipse;whiteSpace=wrap;html=1;fontSize=15;" parent="1" vertex="1">
                    <mxGeometry x="-330" y="325" width="80" height="50" as="geometry"/>
                </mxCell>
                <mxCell id="9ywBwpJ867fxIrzeouce-58" value="name" style="ellipse;whiteSpace=wrap;html=1;fontSize=15;" parent="1" vertex="1">
                    <mxGeometry x="-420" y="370" width="80" height="50" as="geometry"/>
                </mxCell>
                <mxCell id="9ywBwpJ867fxIrzeouce-59" value="Fname" style="ellipse;whiteSpace=wrap;html=1;fontSize=15;" parent="1" vertex="1">
                    <mxGeometry x="-475" y="310" width="70" height="50" as="geometry"/>
                </mxCell>
                <mxCell id="9ywBwpJ867fxIrzeouce-61" value="Lname" style="ellipse;whiteSpace=wrap;html=1;fontSize=15;" parent="1" vertex="1">
                    <mxGeometry x="-400" y="310" width="70" height="40" as="geometry"/>
                </mxCell>
                <mxCell id="9ywBwpJ867fxIrzeouce-62" value="" style="endArrow=none;html=1;fontSize=15;entryX=0.352;entryY=1.007;entryDx=0;entryDy=0;entryPerimeter=0;exitX=0;exitY=0;exitDx=0;exitDy=0;" parent="1" source="9ywBwpJ867fxIrzeouce-58" target="9ywBwpJ867fxIrzeouce-59" edge="1">
                    <mxGeometry width="50" height="50" relative="1" as="geometry">
                        <mxPoint x="-1220" y="660" as="sourcePoint"/>
                        <mxPoint x="-1170" y="610" as="targetPoint"/>
                    </mxGeometry>
                </mxCell>
                <mxCell id="9ywBwpJ867fxIrzeouce-63" value="Email" style="ellipse;whiteSpace=wrap;html=1;fontSize=15;" parent="1" vertex="1">
                    <mxGeometry x="-520" y="360" width="70" height="40" as="geometry"/>
                </mxCell>
                <mxCell id="9ywBwpJ867fxIrzeouce-64" value="Password" style="ellipse;whiteSpace=wrap;html=1;fontSize=15;" parent="1" vertex="1">
                    <mxGeometry x="-530" y="405" width="80" height="30" as="geometry"/>
                </mxCell>
                <mxCell id="9ywBwpJ867fxIrzeouce-65" value="Address" style="ellipse;whiteSpace=wrap;html=1;fontSize=15;" parent="1" vertex="1">
                    <mxGeometry x="-465" y="505" width="80" height="50" as="geometry"/>
                </mxCell>
                <mxCell id="9ywBwpJ867fxIrzeouce-66" value="Street" style="ellipse;whiteSpace=wrap;html=1;fontSize=15;" parent="1" vertex="1">
                    <mxGeometry x="-590" y="480" width="70" height="30" as="geometry"/>
                </mxCell>
                <mxCell id="9ywBwpJ867fxIrzeouce-67" value="City" style="ellipse;whiteSpace=wrap;html=1;fontSize=15;" parent="1" vertex="1">
                    <mxGeometry x="-600" y="510" width="90" height="40" as="geometry"/>
                </mxCell>
                <mxCell id="9ywBwpJ867fxIrzeouce-68" value="" style="endArrow=none;html=1;fontSize=15;entryX=1;entryY=0.5;entryDx=0;entryDy=0;exitX=0;exitY=0.5;exitDx=0;exitDy=0;" parent="1" source="9ywBwpJ867fxIrzeouce-65" target="9ywBwpJ867fxIrzeouce-66" edge="1">
                    <mxGeometry width="50" height="50" relative="1" as="geometry">
                        <mxPoint x="-1220" y="660" as="sourcePoint"/>
                        <mxPoint x="-1170" y="610" as="targetPoint"/>
                    </mxGeometry>
                </mxCell>
                <mxCell id="9ywBwpJ867fxIrzeouce-69" value="" style="endArrow=none;html=1;fontSize=15;entryX=1.011;entryY=0.675;entryDx=0;entryDy=0;exitX=0;exitY=0.5;exitDx=0;exitDy=0;entryPerimeter=0;" parent="1" source="9ywBwpJ867fxIrzeouce-65" target="9ywBwpJ867fxIrzeouce-67" edge="1">
                    <mxGeometry width="50" height="50" relative="1" as="geometry">
                        <mxPoint x="-1220" y="660" as="sourcePoint"/>
                        <mxPoint x="-1170" y="610" as="targetPoint"/>
                    </mxGeometry>
                </mxCell>
                <mxCell id="9ywBwpJ867fxIrzeouce-70" value="Date_Of_Birth" style="ellipse;whiteSpace=wrap;html=1;fontSize=15;" parent="1" vertex="1">
                    <mxGeometry x="-570" y="555" width="120" height="50" as="geometry"/>
                </mxCell>
                <mxCell id="9ywBwpJ867fxIrzeouce-71" value="Gender" style="ellipse;whiteSpace=wrap;html=1;fontSize=15;" parent="1" vertex="1">
                    <mxGeometry x="-540" y="445" width="100" height="40" as="geometry"/>
                </mxCell>
                <mxCell id="9ywBwpJ867fxIrzeouce-72" value="" style="endArrow=none;html=1;fontSize=15;" parent="1" edge="1">
                    <mxGeometry width="50" height="50" relative="1" as="geometry">
                        <mxPoint x="-310" y="364.09000000000003" as="sourcePoint"/>
                        <mxPoint x="-270" y="364.09000000000003" as="targetPoint"/>
                    </mxGeometry>
                </mxCell>
                <mxCell id="9ywBwpJ867fxIrzeouce-73" value="Age" style="ellipse;whiteSpace=wrap;html=1;fontSize=15;dashed=1;dashPattern=8 8;" parent="1" vertex="1">
                    <mxGeometry x="-460" y="640" width="80" height="40" as="geometry"/>
                </mxCell>
                <mxCell id="9ywBwpJ867fxIrzeouce-76" value="" style="endArrow=none;html=1;fontSize=15;entryX=0.5;entryY=1;entryDx=0;entryDy=0;exitX=0.275;exitY=0.033;exitDx=0;exitDy=0;exitPerimeter=0;" parent="1" source="9ywBwpJ867fxIrzeouce-58" target="9ywBwpJ867fxIrzeouce-61" edge="1">
                    <mxGeometry width="50" height="50" relative="1" as="geometry">
                        <mxPoint x="-250" y="700" as="sourcePoint"/>
                        <mxPoint x="-200" y="650" as="targetPoint"/>
                    </mxGeometry>
                </mxCell>
                <mxCell id="9ywBwpJ867fxIrzeouce-78" value="" style="endArrow=none;html=1;fontSize=15;entryX=1;entryY=0.5;entryDx=0;entryDy=0;exitX=0;exitY=0.5;exitDx=0;exitDy=0;" parent="1" source="B34xe9-bHc0KOxXKTYzR-1" target="9ywBwpJ867fxIrzeouce-71" edge="1">
                    <mxGeometry width="50" height="50" relative="1" as="geometry">
                        <mxPoint x="-250" y="700" as="sourcePoint"/>
                        <mxPoint x="-200" y="650" as="targetPoint"/>
                    </mxGeometry>
                </mxCell>
                <mxCell id="9ywBwpJ867fxIrzeouce-79" value="" style="endArrow=none;html=1;fontSize=15;exitX=1;exitY=0.5;exitDx=0;exitDy=0;entryX=0;entryY=0;entryDx=0;entryDy=0;" parent="1" source="9ywBwpJ867fxIrzeouce-63" edge="1" target="B34xe9-bHc0KOxXKTYzR-1">
                    <mxGeometry width="50" height="50" relative="1" as="geometry">
                        <mxPoint x="-250" y="700" as="sourcePoint"/>
                        <mxPoint x="-290" y="490" as="targetPoint"/>
                    </mxGeometry>
                </mxCell>
                <mxCell id="8cSrNxllz_mWBg1tps70-5" value="" style="endArrow=none;html=1;entryX=1;entryY=0.5;entryDx=0;entryDy=0;exitX=-0.037;exitY=0.363;exitDx=0;exitDy=0;exitPerimeter=0;" parent="1" source="B34xe9-bHc0KOxXKTYzR-1" target="9ywBwpJ867fxIrzeouce-64" edge="1">
                    <mxGeometry width="50" height="50" relative="1" as="geometry">
                        <mxPoint x="-160" y="570" as="sourcePoint"/>
                        <mxPoint x="-110" y="520" as="targetPoint"/>
                    </mxGeometry>
                </mxCell>
                <mxCell id="8cSrNxllz_mWBg1tps70-6" value="" style="endArrow=none;html=1;exitX=1;exitY=0.5;exitDx=0;exitDy=0;entryX=0;entryY=0.663;entryDx=0;entryDy=0;entryPerimeter=0;" parent="1" source="9ywBwpJ867fxIrzeouce-65" target="B34xe9-bHc0KOxXKTYzR-1" edge="1">
                    <mxGeometry width="50" height="50" relative="1" as="geometry">
                        <mxPoint x="-160" y="570" as="sourcePoint"/>
                        <mxPoint x="-110" y="520" as="targetPoint"/>
                    </mxGeometry>
                </mxCell>
                <mxCell id="8cSrNxllz_mWBg1tps70-7" value="" style="endArrow=none;html=1;exitX=0.5;exitY=0;exitDx=0;exitDy=0;entryX=0.5;entryY=1;entryDx=0;entryDy=0;" parent="1" source="B34xe9-bHc0KOxXKTYzR-1" target="9ywBwpJ867fxIrzeouce-57" edge="1">
                    <mxGeometry width="50" height="50" relative="1" as="geometry">
                        <mxPoint x="-300" y="570" as="sourcePoint"/>
                        <mxPoint x="-294.7898464698633" y="379.8201135256586" as="targetPoint"/>
                    </mxGeometry>
                </mxCell>
                <mxCell id="8cSrNxllz_mWBg1tps70-8" value="" style="endArrow=none;html=1;exitX=0.958;exitY=0.26;exitDx=0;exitDy=0;exitPerimeter=0;entryX=0;entryY=1;entryDx=0;entryDy=0;" parent="1" source="9ywBwpJ867fxIrzeouce-70" target="B34xe9-bHc0KOxXKTYzR-1" edge="1">
                    <mxGeometry width="50" height="50" relative="1" as="geometry">
                        <mxPoint x="-300" y="570" as="sourcePoint"/>
                        <mxPoint x="-250" y="520" as="targetPoint"/>
                    </mxGeometry>
                </mxCell>
                <mxCell id="8cSrNxllz_mWBg1tps70-9" value="" style="endArrow=none;html=1;exitX=0.738;exitY=0;exitDx=0;exitDy=0;exitPerimeter=0;entryX=0;entryY=1;entryDx=0;entryDy=0;" parent="1" source="9ywBwpJ867fxIrzeouce-73" target="B34xe9-bHc0KOxXKTYzR-1" edge="1">
                    <mxGeometry width="50" height="50" relative="1" as="geometry">
                        <mxPoint x="-300" y="570" as="sourcePoint"/>
                        <mxPoint x="-250" y="520" as="targetPoint"/>
                    </mxGeometry>
                </mxCell>
                <mxCell id="8cSrNxllz_mWBg1tps70-11" value="Track_ID" style="ellipse;whiteSpace=wrap;html=1;" parent="1" vertex="1">
                    <mxGeometry x="1460" y="205" width="90" height="40" as="geometry"/>
                </mxCell>
                <mxCell id="8cSrNxllz_mWBg1tps70-12" value="" style="endArrow=none;html=1;entryX=0;entryY=1;entryDx=0;entryDy=0;" parent="1" source="8cSrNxllz_mWBg1tps70-11" target="ZK8i38kiM4cNsCNuGBnY-1" edge="1">
                    <mxGeometry width="50" height="50" relative="1" as="geometry">
                        <mxPoint x="1100" y="330" as="sourcePoint"/>
                        <mxPoint x="1150" y="280" as="targetPoint"/>
                    </mxGeometry>
                </mxCell>
                <mxCell id="8cSrNxllz_mWBg1tps70-13" value="" style="endArrow=none;dashed=1;html=1;dashPattern=1 3;strokeWidth=2;" parent="1" edge="1">
                    <mxGeometry width="50" height="50" relative="1" as="geometry">
                        <mxPoint x="1490" y="234.29000000000002" as="sourcePoint"/>
                        <mxPoint x="1530" y="234.29000000000002" as="targetPoint"/>
                        <Array as="points">
                            <mxPoint x="1530" y="234.29000000000002"/>
                        </Array>
                    </mxGeometry>
                </mxCell>
                <mxCell id="8cSrNxllz_mWBg1tps70-14" value="Branch_ID" style="ellipse;whiteSpace=wrap;html=1;" parent="1" vertex="1">
                    <mxGeometry x="1480" y="250" width="110" height="50" as="geometry"/>
                </mxCell>
                <mxCell id="8cSrNxllz_mWBg1tps70-15" value="" style="endArrow=none;html=1;entryX=0.25;entryY=1;entryDx=0;entryDy=0;exitX=0.5;exitY=0;exitDx=0;exitDy=0;" parent="1" source="8cSrNxllz_mWBg1tps70-14" target="ZK8i38kiM4cNsCNuGBnY-1" edge="1">
                    <mxGeometry width="50" height="50" relative="1" as="geometry">
                        <mxPoint x="1100" y="330" as="sourcePoint"/>
                        <mxPoint x="1150" y="280" as="targetPoint"/>
                    </mxGeometry>
                </mxCell>
                <mxCell id="8cSrNxllz_mWBg1tps70-16" value="" style="endArrow=none;dashed=1;html=1;dashPattern=1 3;strokeWidth=2;entryX=1;entryY=1;entryDx=0;entryDy=0;exitX=0;exitY=1;exitDx=0;exitDy=0;" parent="1" source="8cSrNxllz_mWBg1tps70-14" target="8cSrNxllz_mWBg1tps70-14" edge="1">
                    <mxGeometry width="50" height="50" relative="1" as="geometry">
                        <mxPoint x="1515" y="289.29" as="sourcePoint"/>
                        <mxPoint x="1555" y="289.29" as="targetPoint"/>
                    </mxGeometry>
                </mxCell>
                <mxCell id="8cSrNxllz_mWBg1tps70-17" value="Branch_ID" style="ellipse;whiteSpace=wrap;html=1;" parent="1" vertex="1">
                    <mxGeometry x="-395" y="670" width="110" height="50" as="geometry"/>
                </mxCell>
                <mxCell id="8cSrNxllz_mWBg1tps70-18" value="" style="endArrow=none;html=1;entryX=0.5;entryY=1;entryDx=0;entryDy=0;exitX=0.5;exitY=0;exitDx=0;exitDy=0;" parent="1" source="8cSrNxllz_mWBg1tps70-17" edge="1" target="B34xe9-bHc0KOxXKTYzR-1">
                    <mxGeometry width="50" height="50" relative="1" as="geometry">
                        <mxPoint x="-690" y="750" as="sourcePoint"/>
                        <mxPoint x="-270" y="540" as="targetPoint"/>
                    </mxGeometry>
                </mxCell>
                <mxCell id="8cSrNxllz_mWBg1tps70-19" value="" style="endArrow=none;dashed=1;html=1;dashPattern=1 3;strokeWidth=2;" parent="1" edge="1">
                    <mxGeometry width="50" height="50" relative="1" as="geometry">
                        <mxPoint x="-375" y="710" as="sourcePoint"/>
                        <mxPoint x="-305" y="710" as="targetPoint"/>
                    </mxGeometry>
                </mxCell>
                <mxCell id="C3XXznOGY3TBKGL7pKct-1" value="Track_Number" style="ellipse;whiteSpace=wrap;html=1;dashed=1;dashPattern=12 12;" parent="1" vertex="1">
                    <mxGeometry x="-250" y="-90" width="100" height="50" as="geometry"/>
                </mxCell>
                <mxCell id="C3XXznOGY3TBKGL7pKct-2" value="" style="endArrow=none;html=1;entryX=1;entryY=0.5;entryDx=0;entryDy=0;exitX=0.25;exitY=0;exitDx=0;exitDy=0;" parent="1" source="x1ZUqVB6L2o65wd4H-tt-1" target="C3XXznOGY3TBKGL7pKct-1" edge="1">
                    <mxGeometry width="50" height="50" relative="1" as="geometry">
                        <mxPoint x="230" y="570" as="sourcePoint"/>
                        <mxPoint x="280" y="520" as="targetPoint"/>
                    </mxGeometry>
                </mxCell>
                <mxCell id="C3XXznOGY3TBKGL7pKct-4" value="Salary" style="ellipse;whiteSpace=wrap;html=1;" parent="1" vertex="1">
                    <mxGeometry x="-520" y="615" width="90" height="30" as="geometry"/>
                </mxCell>
                <mxCell id="C3XXznOGY3TBKGL7pKct-5" value="" style="endArrow=none;html=1;entryX=0;entryY=0.75;entryDx=0;entryDy=0;exitX=1;exitY=0;exitDx=0;exitDy=0;" parent="1" source="C3XXznOGY3TBKGL7pKct-4" target="B34xe9-bHc0KOxXKTYzR-1" edge="1">
                    <mxGeometry width="50" height="50" relative="1" as="geometry">
                        <mxPoint x="-170" y="610" as="sourcePoint"/>
                        <mxPoint x="-120" y="560" as="targetPoint"/>
                    </mxGeometry>
                </mxCell>
                <mxCell id="C3XXznOGY3TBKGL7pKct-6" value="ID" style="ellipse;whiteSpace=wrap;html=1;" parent="1" vertex="1">
                    <mxGeometry x="490" y="520" width="90" height="25" as="geometry"/>
                </mxCell>
                <mxCell id="C3XXznOGY3TBKGL7pKct-7" value="" style="endArrow=none;html=1;" parent="1" edge="1">
                    <mxGeometry width="50" height="50" relative="1" as="geometry">
                        <mxPoint x="515" y="539.41" as="sourcePoint"/>
                        <mxPoint x="555" y="539.41" as="targetPoint"/>
                    </mxGeometry>
                </mxCell>
                <mxCell id="C3XXznOGY3TBKGL7pKct-8" value="" style="endArrow=none;html=1;entryX=0.419;entryY=0.995;entryDx=0;entryDy=0;entryPerimeter=0;exitX=1;exitY=0;exitDx=0;exitDy=0;" parent="1" source="1APvsUfh0vBcOlaK1SBE-1" target="C3XXznOGY3TBKGL7pKct-6" edge="1">
                    <mxGeometry width="50" height="50" relative="1" as="geometry">
                        <mxPoint x="310" y="450" as="sourcePoint"/>
                        <mxPoint x="360" y="400" as="targetPoint"/>
                    </mxGeometry>
                </mxCell>
                <mxCell id="C3XXznOGY3TBKGL7pKct-10" value="Name" style="ellipse;whiteSpace=wrap;html=1;fontSize=15;" parent="1" vertex="1">
                    <mxGeometry x="500" y="570" width="90" height="30" as="geometry"/>
                </mxCell>
                <mxCell id="C3XXznOGY3TBKGL7pKct-11" value="" style="endArrow=none;html=1;entryX=0;entryY=1;entryDx=0;entryDy=0;exitX=1.004;exitY=0.41;exitDx=0;exitDy=0;exitPerimeter=0;" parent="1" source="1APvsUfh0vBcOlaK1SBE-1" target="C3XXznOGY3TBKGL7pKct-10" edge="1">
                    <mxGeometry width="50" height="50" relative="1" as="geometry">
                        <mxPoint x="310" y="450" as="sourcePoint"/>
                        <mxPoint x="360" y="400" as="targetPoint"/>
                    </mxGeometry>
                </mxCell>
                <mxCell id="C3XXznOGY3TBKGL7pKct-13" value="ID" style="ellipse;whiteSpace=wrap;html=1;" parent="1" vertex="1">
                    <mxGeometry x="-60" y="590" width="90" height="35" as="geometry"/>
                </mxCell>
                <mxCell id="C3XXznOGY3TBKGL7pKct-14" value="" style="endArrow=none;html=1;strokeWidth=3;" parent="1" edge="1">
                    <mxGeometry width="50" height="50" relative="1" as="geometry">
                        <mxPoint x="-35" y="619.4099999999999" as="sourcePoint"/>
                        <mxPoint x="5" y="619.4099999999999" as="targetPoint"/>
                    </mxGeometry>
                </mxCell>
                <mxCell id="C3XXznOGY3TBKGL7pKct-15" value="Name" style="ellipse;whiteSpace=wrap;html=1;fontSize=15;" parent="1" vertex="1">
                    <mxGeometry x="-95" y="640" width="90" height="30" as="geometry"/>
                </mxCell>
                <mxCell id="C3XXznOGY3TBKGL7pKct-16" value="" style="endArrow=none;html=1;entryX=1;entryY=0.5;entryDx=0;entryDy=0;" parent="1" target="C3XXznOGY3TBKGL7pKct-13" edge="1">
                    <mxGeometry width="50" height="50" relative="1" as="geometry">
                        <mxPoint x="70" y="670" as="sourcePoint"/>
                        <mxPoint x="360" y="400" as="targetPoint"/>
                    </mxGeometry>
                </mxCell>
                <mxCell id="C3XXznOGY3TBKGL7pKct-17" value="" style="endArrow=none;html=1;exitX=1;exitY=0.5;exitDx=0;exitDy=0;entryX=0;entryY=0.5;entryDx=0;entryDy=0;" parent="1" source="C3XXznOGY3TBKGL7pKct-15" target="ab6ClW7MfKBArkYZjt3i-1" edge="1">
                    <mxGeometry width="50" height="50" relative="1" as="geometry">
                        <mxPoint x="310" y="450" as="sourcePoint"/>
                        <mxPoint x="360" y="400" as="targetPoint"/>
                    </mxGeometry>
                </mxCell>
                <mxCell id="C3XXznOGY3TBKGL7pKct-19" value="" style="endArrow=none;html=1;exitX=0.5;exitY=0;exitDx=0;exitDy=0;" parent="1" source="ab6ClW7MfKBArkYZjt3i-1" target="ab6ClW7MfKBArkYZjt3i-2" edge="1">
                    <mxGeometry width="50" height="50" relative="1" as="geometry">
                        <mxPoint x="310" y="450" as="sourcePoint"/>
                        <mxPoint x="205" y="575" as="targetPoint"/>
                    </mxGeometry>
                </mxCell>
                <mxCell id="C3XXznOGY3TBKGL7pKct-20" value="Course_ID" style="ellipse;whiteSpace=wrap;html=1;" parent="1" vertex="1">
                    <mxGeometry x="-110" y="700" width="110" height="60" as="geometry"/>
                </mxCell>
                <mxCell id="C3XXznOGY3TBKGL7pKct-21" value="" style="endArrow=none;html=1;entryX=0;entryY=0.75;entryDx=0;entryDy=0;exitX=1;exitY=0.5;exitDx=0;exitDy=0;" parent="1" source="C3XXznOGY3TBKGL7pKct-20" target="C3XXznOGY3TBKGL7pKct-18" edge="1">
                    <mxGeometry width="50" height="50" relative="1" as="geometry">
                        <mxPoint x="310" y="450" as="sourcePoint"/>
                        <mxPoint x="360" y="400" as="targetPoint"/>
                    </mxGeometry>
                </mxCell>
                <mxCell id="C3XXznOGY3TBKGL7pKct-24" value="" style="endArrow=none;dashed=1;html=1;dashPattern=1 3;strokeWidth=2;" parent="1" edge="1">
                    <mxGeometry width="50" height="50" relative="1" as="geometry">
                        <mxPoint x="-70" y="740" as="sourcePoint"/>
                        <mxPoint x="-40" y="740" as="targetPoint"/>
                    </mxGeometry>
                </mxCell>
                <mxCell id="C3XXznOGY3TBKGL7pKct-25" value="" style="endArrow=none;html=1;fontStyle=1;spacing=12;strokeWidth=3;" parent="1" edge="1">
                    <mxGeometry width="50" height="50" relative="1" as="geometry">
                        <mxPoint x="-80" y="750" as="sourcePoint"/>
                        <mxPoint x="-30" y="750" as="targetPoint"/>
                    </mxGeometry>
                </mxCell>
                <mxCell id="HZSNlEJaLgMtqOaSpHTD-1" value="Question_Type" style="ellipse;whiteSpace=wrap;html=1;" parent="1" vertex="1">
                    <mxGeometry x="-155" y="970" width="90" height="30" as="geometry"/>
                </mxCell>
                <mxCell id="HZSNlEJaLgMtqOaSpHTD-2" value="Question_Body" style="ellipse;whiteSpace=wrap;html=1;" parent="1" vertex="1">
                    <mxGeometry x="-155" y="930" width="95" height="30" as="geometry"/>
                </mxCell>
                <mxCell id="HZSNlEJaLgMtqOaSpHTD-3" value="Question_ID" style="ellipse;whiteSpace=wrap;html=1;" parent="1" vertex="1">
                    <mxGeometry x="-90" y="900" width="90" height="30" as="geometry"/>
                </mxCell>
                <mxCell id="HZSNlEJaLgMtqOaSpHTD-4" value="Question_Answer" style="ellipse;whiteSpace=wrap;html=1;" parent="1" vertex="1">
                    <mxGeometry x="-180" y="1010" width="110" height="30" as="geometry"/>
                </mxCell>
                <mxCell id="HZSNlEJaLgMtqOaSpHTD-5" value="Topic_ID" style="ellipse;whiteSpace=wrap;html=1;" parent="1" vertex="1">
                    <mxGeometry x="-190" y="1060" width="100" height="40" as="geometry"/>
                </mxCell>
                <mxCell id="HZSNlEJaLgMtqOaSpHTD-6" value="" style="endArrow=none;html=1;" parent="1" edge="1">
                    <mxGeometry width="50" height="50" relative="1" as="geometry">
                        <mxPoint x="-90" y="920" as="sourcePoint"/>
                        <mxPoint y="920" as="targetPoint"/>
                    </mxGeometry>
                </mxCell>
                <mxCell id="HZSNlEJaLgMtqOaSpHTD-7" value="" style="endArrow=none;dashed=1;html=1;dashPattern=1 3;strokeWidth=2;" parent="1" edge="1">
                    <mxGeometry width="50" height="50" relative="1" as="geometry">
                        <mxPoint x="-160" y="1090" as="sourcePoint"/>
                        <mxPoint x="-120" y="1090" as="targetPoint"/>
                    </mxGeometry>
                </mxCell>
                <mxCell id="HZSNlEJaLgMtqOaSpHTD-8" value="" style="endArrow=none;html=1;strokeWidth=1;entryX=1;entryY=0.5;entryDx=0;entryDy=0;exitX=0;exitY=0;exitDx=0;exitDy=0;" parent="1" source="Ij5aEjueVrOiI7BzLRH4-1" target="HZSNlEJaLgMtqOaSpHTD-3" edge="1">
                    <mxGeometry width="50" height="50" relative="1" as="geometry">
                        <mxPoint x="-210" y="1240" as="sourcePoint"/>
                        <mxPoint x="-160" y="1190" as="targetPoint"/>
                    </mxGeometry>
                </mxCell>
                <mxCell id="HZSNlEJaLgMtqOaSpHTD-9" value="" style="endArrow=none;html=1;strokeWidth=1;entryX=1;entryY=0.5;entryDx=0;entryDy=0;exitX=0;exitY=0.25;exitDx=0;exitDy=0;" parent="1" source="Ij5aEjueVrOiI7BzLRH4-1" target="HZSNlEJaLgMtqOaSpHTD-2" edge="1">
                    <mxGeometry width="50" height="50" relative="1" as="geometry">
                        <mxPoint x="-210" y="1240" as="sourcePoint"/>
                        <mxPoint x="-160" y="1190" as="targetPoint"/>
                    </mxGeometry>
                </mxCell>
                <mxCell id="HZSNlEJaLgMtqOaSpHTD-10" value="" style="endArrow=none;html=1;strokeWidth=1;entryX=0.988;entryY=0.722;entryDx=0;entryDy=0;entryPerimeter=0;exitX=0;exitY=0.5;exitDx=0;exitDy=0;" parent="1" source="Ij5aEjueVrOiI7BzLRH4-1" target="HZSNlEJaLgMtqOaSpHTD-1" edge="1">
                    <mxGeometry width="50" height="50" relative="1" as="geometry">
                        <mxPoint x="-210" y="1240" as="sourcePoint"/>
                        <mxPoint x="-160" y="1190" as="targetPoint"/>
                    </mxGeometry>
                </mxCell>
                <mxCell id="HZSNlEJaLgMtqOaSpHTD-11" value="" style="endArrow=none;html=1;strokeWidth=1;entryX=1;entryY=0.5;entryDx=0;entryDy=0;exitX=0;exitY=0.75;exitDx=0;exitDy=0;" parent="1" source="Ij5aEjueVrOiI7BzLRH4-1" target="HZSNlEJaLgMtqOaSpHTD-4" edge="1">
                    <mxGeometry width="50" height="50" relative="1" as="geometry">
                        <mxPoint x="-210" y="1240" as="sourcePoint"/>
                        <mxPoint x="-160" y="1190" as="targetPoint"/>
                    </mxGeometry>
                </mxCell>
                <mxCell id="HZSNlEJaLgMtqOaSpHTD-13" value="" style="endArrow=none;html=1;strokeWidth=1;entryX=0.001;entryY=0.863;entryDx=0;entryDy=0;entryPerimeter=0;exitX=1;exitY=0;exitDx=0;exitDy=0;" parent="1" source="HZSNlEJaLgMtqOaSpHTD-5" target="Ij5aEjueVrOiI7BzLRH4-1" edge="1">
                    <mxGeometry width="50" height="50" relative="1" as="geometry">
                        <mxPoint x="-100" y="1240" as="sourcePoint"/>
                        <mxPoint x="-50" y="1190" as="targetPoint"/>
                    </mxGeometry>
                </mxCell>
                <mxCell id="Fu7TBKyz4eI9DtGKC1yF-1" value="Question_ID" style="ellipse;whiteSpace=wrap;html=1;" parent="1" vertex="1">
                    <mxGeometry x="-140" y="1540" width="120" height="80" as="geometry"/>
                </mxCell>
                <mxCell id="Fu7TBKyz4eI9DtGKC1yF-2" value="Number_Of_Choice" style="ellipse;whiteSpace=wrap;html=1;" parent="1" vertex="1">
                    <mxGeometry x="-5" y="1550" width="120" height="80" as="geometry"/>
                </mxCell>
                <mxCell id="Fu7TBKyz4eI9DtGKC1yF-3" value="Body_Of_Choice" style="ellipse;whiteSpace=wrap;html=1;" parent="1" vertex="1">
                    <mxGeometry x="125" y="1580" width="120" height="80" as="geometry"/>
                </mxCell>
                <mxCell id="Fu7TBKyz4eI9DtGKC1yF-4" value="" style="endArrow=none;dashed=1;html=1;dashPattern=1 3;strokeWidth=2;" parent="1" edge="1">
                    <mxGeometry width="50" height="50" relative="1" as="geometry">
                        <mxPoint x="-105" y="1600" as="sourcePoint"/>
                        <mxPoint x="-55" y="1600" as="targetPoint"/>
                    </mxGeometry>
                </mxCell>
                <mxCell id="Fu7TBKyz4eI9DtGKC1yF-5" value="" style="endArrow=none;html=1;" parent="1" edge="1">
                    <mxGeometry width="50" height="50" relative="1" as="geometry">
                        <mxPoint x="-105" y="1589.5" as="sourcePoint"/>
                        <mxPoint x="-55" y="1589.5" as="targetPoint"/>
                    </mxGeometry>
                </mxCell>
                <mxCell id="Fu7TBKyz4eI9DtGKC1yF-6" value="" style="endArrow=none;html=1;" parent="1" edge="1">
                    <mxGeometry width="50" height="50" relative="1" as="geometry">
                        <mxPoint x="20" y="1610" as="sourcePoint"/>
                        <mxPoint x="90" y="1610" as="targetPoint"/>
                    </mxGeometry>
                </mxCell>
                <mxCell id="Fu7TBKyz4eI9DtGKC1yF-8" value="" style="endArrow=none;html=1;strokeWidth=1;entryX=0.013;entryY=0.666;entryDx=0;entryDy=0;entryPerimeter=0;exitX=0.621;exitY=-0.046;exitDx=0;exitDy=0;exitPerimeter=0;" parent="1" source="Fu7TBKyz4eI9DtGKC1yF-1" target="MNkr-cBMKgHOvFw-JObe-1" edge="1">
                    <mxGeometry width="50" height="50" relative="1" as="geometry">
                        <mxPoint x="-55" y="1510" as="sourcePoint"/>
                        <mxPoint x="-5" y="1460" as="targetPoint"/>
                    </mxGeometry>
                </mxCell>
                <mxCell id="Fu7TBKyz4eI9DtGKC1yF-9" value="" style="endArrow=none;html=1;strokeWidth=1;entryX=0.14;entryY=1.009;entryDx=0;entryDy=0;entryPerimeter=0;exitX=0.5;exitY=0;exitDx=0;exitDy=0;" parent="1" source="Fu7TBKyz4eI9DtGKC1yF-2" target="MNkr-cBMKgHOvFw-JObe-1" edge="1">
                    <mxGeometry width="50" height="50" relative="1" as="geometry">
                        <mxPoint y="1560" as="sourcePoint"/>
                        <mxPoint x="50" y="1510" as="targetPoint"/>
                    </mxGeometry>
                </mxCell>
                <mxCell id="Fu7TBKyz4eI9DtGKC1yF-10" value="" style="endArrow=none;html=1;strokeWidth=1;entryX=0.75;entryY=1;entryDx=0;entryDy=0;exitX=0.295;exitY=0.028;exitDx=0;exitDy=0;exitPerimeter=0;" parent="1" source="Fu7TBKyz4eI9DtGKC1yF-3" target="MNkr-cBMKgHOvFw-JObe-1" edge="1">
                    <mxGeometry width="50" height="50" relative="1" as="geometry">
                        <mxPoint x="80" y="1360" as="sourcePoint"/>
                        <mxPoint x="130" y="1310" as="targetPoint"/>
                    </mxGeometry>
                </mxCell>
                <mxCell id="Fu7TBKyz4eI9DtGKC1yF-11" value="ID" style="ellipse;whiteSpace=wrap;html=1;" parent="1" vertex="1">
                    <mxGeometry x="1210" y="630" width="80" height="30" as="geometry"/>
                </mxCell>
                <mxCell id="Fu7TBKyz4eI9DtGKC1yF-12" value="" style="endArrow=none;html=1;strokeWidth=1;entryX=0.5;entryY=1;entryDx=0;entryDy=0;exitX=0;exitY=0.25;exitDx=0;exitDy=0;" parent="1" source="RWAqOIKECp84sDF3Jtlx-1" target="Fu7TBKyz4eI9DtGKC1yF-11" edge="1">
                    <mxGeometry width="50" height="50" relative="1" as="geometry">
                        <mxPoint x="730" y="670" as="sourcePoint"/>
                        <mxPoint x="780" y="620" as="targetPoint"/>
                    </mxGeometry>
                </mxCell>
                <mxCell id="Fu7TBKyz4eI9DtGKC1yF-13" value="Date" style="ellipse;whiteSpace=wrap;html=1;" parent="1" vertex="1">
                    <mxGeometry x="1320" y="600" width="80" height="30" as="geometry"/>
                </mxCell>
                <mxCell id="Fu7TBKyz4eI9DtGKC1yF-14" value="" style="endArrow=none;html=1;strokeWidth=1;" parent="1" source="RWAqOIKECp84sDF3Jtlx-1" target="Fu7TBKyz4eI9DtGKC1yF-13" edge="1">
                    <mxGeometry width="50" height="50" relative="1" as="geometry">
                        <mxPoint x="730" y="670" as="sourcePoint"/>
                        <mxPoint x="780" y="620" as="targetPoint"/>
                    </mxGeometry>
                </mxCell>
                <mxCell id="Fu7TBKyz4eI9DtGKC1yF-15" value="Duration" style="ellipse;whiteSpace=wrap;html=1;" parent="1" vertex="1">
                    <mxGeometry x="1390" y="630" width="90" height="30" as="geometry"/>
                </mxCell>
                <mxCell id="Fu7TBKyz4eI9DtGKC1yF-16" value="" style="endArrow=none;html=1;strokeWidth=1;entryX=0;entryY=1;entryDx=0;entryDy=0;exitX=0.857;exitY=0.013;exitDx=0;exitDy=0;exitPerimeter=0;" parent="1" source="RWAqOIKECp84sDF3Jtlx-1" target="Fu7TBKyz4eI9DtGKC1yF-15" edge="1">
                    <mxGeometry width="50" height="50" relative="1" as="geometry">
                        <mxPoint x="730" y="670" as="sourcePoint"/>
                        <mxPoint x="780" y="620" as="targetPoint"/>
                    </mxGeometry>
                </mxCell>
                <mxCell id="Fu7TBKyz4eI9DtGKC1yF-17" value="Number_Of_Questions" style="ellipse;whiteSpace=wrap;html=1;dashed=1;" parent="1" vertex="1">
                    <mxGeometry x="1190" y="570" width="140" height="40" as="geometry"/>
                </mxCell>
                <mxCell id="Fu7TBKyz4eI9DtGKC1yF-18" value="" style="endArrow=none;html=1;strokeWidth=1;entryX=0.708;entryY=1.012;entryDx=0;entryDy=0;entryPerimeter=0;exitX=0.25;exitY=0;exitDx=0;exitDy=0;" parent="1" source="RWAqOIKECp84sDF3Jtlx-1" target="Fu7TBKyz4eI9DtGKC1yF-17" edge="1">
                    <mxGeometry width="50" height="50" relative="1" as="geometry">
                        <mxPoint x="730" y="670" as="sourcePoint"/>
                        <mxPoint x="780" y="620" as="targetPoint"/>
                    </mxGeometry>
                </mxCell>
                <mxCell id="Fu7TBKyz4eI9DtGKC1yF-19" value="Text" style="text;html=1;strokeColor=none;fillColor=none;align=center;verticalAlign=middle;whiteSpace=wrap;rounded=0;dashed=1;" parent="1" vertex="1">
                    <mxGeometry x="520" y="850" width="60" height="30" as="geometry"/>
                </mxCell>
                <mxCell id="Fu7TBKyz4eI9DtGKC1yF-20" value="M" style="text;html=1;strokeColor=none;fillColor=none;align=center;verticalAlign=middle;whiteSpace=wrap;rounded=0;dashed=1;" parent="1" vertex="1">
                    <mxGeometry x="1040" y="1330" width="60" height="30" as="geometry"/>
                </mxCell>
                <mxCell id="Fu7TBKyz4eI9DtGKC1yF-21" value="M" style="text;html=1;strokeColor=none;fillColor=none;align=center;verticalAlign=middle;whiteSpace=wrap;rounded=0;dashed=1;" parent="1" vertex="1">
                    <mxGeometry x="1220" y="1260" width="60" height="30" as="geometry"/>
                </mxCell>
                <mxCell id="Fu7TBKyz4eI9DtGKC1yF-22" value="M" style="text;html=1;strokeColor=none;fillColor=none;align=center;verticalAlign=middle;whiteSpace=wrap;rounded=0;dashed=1;" parent="1" vertex="1">
                    <mxGeometry x="1440" y="1340" width="60" height="30" as="geometry"/>
                </mxCell>
            </root>
        </mxGraphModel>
    </diagram>
</mxfile>